<svg xmlns="http://www.w3.org/2000/svg" width="522" height="147" viewBox="0 0 522 147">
<path d="M0 0 C1.394 -0.109 2.791 -0.186 4.188 -0.25 C4.576 -0.273 4.576 -0.273 6.543 -0.391 C9.975 0.155 11.44 1.69 14 4 C14.206 24.414 14.206 24.414 13 34 C12.34 34 11.68 34 11 34 C10.938 34.351 10.938 34.351 10.625 36.125 C9.3 42.22 7.954 45.969 3 50 C1.058 51.443 -0.931 52.749 -3 54 C-3.66 54.412 -4.32 54.825 -5 55.25 C-8.965 56.737 -12.461 56.292 -16.375 55 C-17.241 54.67 -18.107 54.34 -19 54 C-19 53.01 -19 52.02 -19 51 C-19.99 51 -20.98 51 -22 51 C-24.097 48.64 -24.969 47.454 -25.188 44.25 C-25.126 43.507 -25.064 42.765 -25 42 C-27.64 42.33 -30.28 42.66 -33 43 C-33.33 43.66 -33.66 44.32 -34 45 C-34.825 45.165 -34.825 45.165 -39 46 C-39.33 46.66 -39.66 47.32 -40 48 C-41.375 48.598 -41.375 48.598 -43 49.062 C-45.908 49.908 -45.908 49.908 -47 51 C-49.281 51.272 -51.579 51.232 -53.875 51.25 C-54.513 51.271 -55.151 51.291 -55.809 51.312 C-60.556 51.352 -60.556 51.352 -62.781 49.586 C-62.982 49.324 -62.982 49.324 -64 48 C-65.352 47.086 -65.352 47.086 -66.625 46.375 C-69 45 -69 45 -70 44 C-70.072 42.314 -70.084 40.625 -70.062 38.938 C-70.053 38.018 -70.044 37.099 -70.035 36.152 C-70.024 35.442 -70.012 34.732 -70 34 C-72.64 34.33 -75.28 34.66 -78 35 C-78.165 35.33 -78.165 35.33 -79 37 C-79.915 37.193 -80.83 37.387 -81.773 37.586 C-82.974 37.849 -84.175 38.112 -85.375 38.375 C-85.978 38.501 -86.582 38.628 -87.203 38.758 C-87.783 38.887 -88.363 39.016 -88.961 39.148 C-89.495 39.264 -90.029 39.379 -90.58 39.498 C-92 40 -92 40 -94 42 C-95.473 42.598 -95.473 42.598 -97.062 43.062 C-99.903 43.903 -99.903 43.903 -101 45 C-103.006 45.139 -104.987 45.043 -107 45 C-107.33 45.99 -107.66 46.98 -108 48 C-111.417 48.087 -114.833 48.14 -118.25 48.188 C-118.734 48.2 -118.734 48.2 -121.184 48.264 C-122.118 48.273 -123.053 48.283 -124.016 48.293 C-124.874 48.309 -125.733 48.324 -126.618 48.341 C-129.483 47.931 -130.851 46.886 -133 45 C-133 44.01 -133 43.02 -133 42 C-133.99 42 -134.98 42 -136 42 C-136.33 41.34 -136.66 40.68 -137 40 C-143.038 39.374 -143.038 39.374 -145.367 40.891 C-146.16 41.626 -146.949 42.366 -147.734 43.109 C-149.338 44.238 -150.369 44.268 -152.312 44.25 C-153.199 44.167 -154.086 44.085 -155 44 C-155.33 44.99 -155.66 45.98 -156 47 C-157.65 47 -159.3 47 -161 47 C-161.33 47.99 -161.66 48.98 -162 50 C-164.251 50.108 -166.497 50.187 -168.75 50.25 C-169.067 50.267 -169.067 50.267 -170.672 50.352 C-172.527 50.39 -174.179 50.365 -176 50 C-178.203 48.047 -178.203 48.047 -180 46 C-182.112 45.372 -182.112 45.372 -184 45 C-184.058 41.708 -184.094 38.417 -184.125 35.125 C-184.142 34.188 -184.159 33.251 -184.176 32.285 C-184.179 31.837 -184.179 31.837 -184.195 29.57 C-184.206 28.743 -184.216 27.915 -184.227 27.063 C-184 25 -184 25 -182 23 C-181.375 20.375 -181.375 20.375 -181 18 C-180.34 17.67 -179.68 17.34 -179 17 C-178.67 14.69 -178.34 12.38 -178 10 C-177.01 9.67 -176.02 9.34 -175 9 C-174.67 8.01 -174.34 7.02 -174 6 C-173.34 6 -172.68 6 -172 6 C-172 4.68 -172 3.36 -172 2 C-169.69 2.33 -167.38 2.66 -165 3 C-165 3.66 -165 4.32 -165 5 C-164.381 5.289 -163.762 5.578 -163.125 5.875 C-161 7 -161 7 -159 9 C-158.356 11.749 -158.383 14.247 -159 17 C-160.404 18.655 -161.946 19.944 -163.598 21.348 C-165.87 24.025 -165.824 26.837 -165.992 30.242 C-165.995 30.822 -165.997 31.402 -166 32 C-161.625 31.49 -157.304 30.942 -153 30 C-152.67 29.01 -152.34 28.02 -152 27 C-151.529 26.914 -151.059 26.827 -150.574 26.738 C-145.483 25.589 -145.483 25.589 -144.008 23.789 C-143.778 23.343 -143.549 22.897 -143.312 22.438 C-142.879 21.633 -142.446 20.829 -142 20 C-139.812 19.188 -139.812 19.188 -138 19 C-137.907 18.639 -137.907 18.639 -137.438 16.812 C-135.946 13.002 -132.467 10.922 -129 9 C-128.34 9 -127.68 9 -127 9 C-126.67 8.01 -126.34 7.02 -126 6 C-125.34 6 -124.68 6 -124 6 C-123.67 5.01 -123.34 4.02 -123 3 C-120.77 2.919 -118.543 2.859 -116.312 2.812 C-115.687 2.787 -115.061 2.762 -114.416 2.736 C-109.973 2.667 -107.58 3.341 -104 6 C-102.535 7.255 -101.319 8.583 -100 10 C-100.75 15.75 -100.75 15.75 -103 18 C-105.667 17.333 -108.333 16.667 -111 16 C-111.338 16.289 -111.675 16.578 -112.023 16.875 C-112.246 17.061 -112.246 17.061 -113.375 18 C-113.595 18.186 -113.595 18.186 -114.711 19.125 C-116 20 -116 20 -118 20 C-118 21.32 -118 22.64 -118 24 C-118.66 24 -119.32 24 -120 24 C-121.604 27.508 -122.22 30.144 -122 34 C-120.68 34.33 -119.36 34.66 -118 35 C-118 34.34 -118 33.68 -118 33 C-114.04 33 -110.08 33 -106 33 C-105.67 32.01 -105.34 31.02 -105 30 C-102.5 28.875 -102.5 28.875 -100 28 C-99.835 27.835 -99.835 27.835 -99 27 C-97.318 26.767 -95.629 26.587 -93.938 26.438 C-93.478 26.396 -93.478 26.396 -91.152 26.184 C-90.442 26.123 -89.732 26.062 -89 26 C-88.67 25.34 -88.34 24.68 -88 24 C-86.625 23.402 -86.625 23.402 -85 22.938 C-82.092 22.092 -82.092 22.092 -81 21 C-79.314 20.928 -77.625 20.916 -75.938 20.938 C-75.018 20.947 -74.099 20.956 -73.152 20.965 C-72.442 20.976 -71.732 20.988 -71 21 C-70.956 20.693 -70.956 20.693 -70.73 19.137 C-70 17 -70 17 -68.363 15.832 C-67.687 15.496 -67.01 15.159 -66.312 14.812 C-61.304 11.943 -58.829 7.919 -56 3 C-54.896 2.946 -53.792 2.907 -52.688 2.875 C-52.38 2.863 -52.38 2.863 -50.824 2.805 C-48.694 3.033 -47.719 3.775 -46 5 C-45.854 7.562 -45.766 10.123 -45.688 12.688 C-45.667 13.048 -45.667 13.048 -45.561 14.873 C-45.438 20.246 -45.438 20.246 -47.107 22.484 C-47.999 23.313 -48.912 24.123 -49.844 24.907 C-51 26 -51 26 -51.707 28.238 C-51.742 28.923 -51.777 29.607 -51.812 30.312 C-51.874 31.529 -51.936 32.746 -52 34 C-50.515 33.835 -50.515 33.835 -43 33 C-42.67 32.01 -42.34 31.02 -42 30 C-39.5 28.875 -39.5 28.875 -37 28 C-36.67 27.67 -36.34 27.34 -36 27 C-34.334 26.959 -32.666 26.957 -31 27 C-30.856 26.691 -30.856 26.691 -30.125 25.125 C-29 23 -29 23 -27 21 C-26.072 20.711 -25.144 20.422 -24.188 20.125 C-19.214 18.568 -16.031 15.076 -12.461 11.438 C-10.626 9.632 -8.731 7.905 -6.812 6.188 C-6.138 5.583 -5.464 4.978 -4.77 4.355 C-3 3 -3 3 -1 3 C-0.67 2.01 -0.34 1.02 0 0 Z " fill="#ED2F24" transform="translate(418,57)"/>
<path d="M0 0 C5.61 0 11.22 0 17 0 C19.007 3.01 19.275 3.673 19.25 7.062 C19.255 7.755 19.26 8.447 19.266 9.16 C19 11 19 11 17 13 C14.375 13.125 14.375 13.125 12 13 C12.747 16.206 13.453 19.153 15.25 21.938 C17.964 23.585 19.851 23.335 23 23 C23.66 22.34 24.32 21.68 25 21 C26.989 20.454 28.946 20.268 31 20 C31.33 19.34 31.66 18.68 32 18 C32.554 17.951 33.109 17.902 33.68 17.852 C34.404 17.777 35.129 17.702 35.875 17.625 C36.594 17.555 37.314 17.486 38.055 17.414 C40 17 40 17 42 15 C44.033 14.737 45.941 14.91 48 15 C48.031 14.773 48.031 14.773 48.188 13.625 C48.456 13.089 48.724 12.552 49 12 C50.167 11.5 51.34 11.011 52.543 10.605 C54.233 9.903 55.528 8.959 57 7.875 C59.163 6.381 60.038 5.995 62.75 5.625 C65 6 65 6 67 8 C68.65 8.707 70.316 9.379 72 10 C72 10.66 72 11.32 72 12 C72.99 12.33 73.98 12.66 75 13 C76.123 18.088 76.328 22.369 74.293 27.242 C72.171 30.127 69.362 31.05 66.059 32.211 C64 33 64 33 62 35 C59.375 35.125 59.375 35.125 57 35 C56.711 35.598 56.422 36.196 56.125 36.812 C55 39 55 39 53 42 C54.485 41.835 54.485 41.835 62 41 C62.165 40.67 62.165 40.67 63 39 C64.333 38.667 65.667 38.333 67 38 C67.165 37.67 67.165 37.67 68 36 C70.64 35.67 73.28 35.34 76 35 C76.165 34.67 76.165 34.67 77 33 C78.32 33 79.64 33 81 33 C81.031 32.773 81.031 32.773 81.188 31.625 C82 30 82 30 84.188 29 C85.116 28.67 86.044 28.34 87 28 C88.501 27.294 89.975 26.543 91.453 25.789 C93.491 24.749 95.549 23.749 97.605 22.746 C102.43 20.165 103.848 16.944 106 12 C106.748 10.011 107.389 8.037 108 6 C110.64 6 113.28 6 116 6 C116 6.66 116 7.32 116 8 C117.32 8.66 118.64 9.32 120 10 C120 10.66 120 11.32 120 12 C121.32 12 122.64 12 124 12 C124 11.01 124 10.02 124 9 C124.402 8.845 124.402 8.845 126.438 8.062 C129 7 129 7 130 6 C131.867 5.927 133.697 5.907 135.562 5.938 C136.083 5.942 136.603 5.947 137.139 5.951 C138.426 5.963 139.713 5.981 141 6 C141.557 6.763 142.114 7.526 142.688 8.312 C144.818 11.001 146.983 12.408 150 14 C150 16.31 150 18.62 150 21 C147.684 22.765 147.087 23 144 23 C144 22.34 144 21.68 144 21 C141.36 21.33 138.72 21.66 136 22 C135.67 22.66 135.34 23.32 135 24 C134.245 24.09 133.489 24.18 132.711 24.273 C129.508 25.132 128.655 26.06 126.625 28.625 C124.281 31.498 121.901 34.098 119.188 36.625 C116.987 38.762 115.659 40.274 114.875 43.25 C114.586 44.157 114.298 45.065 114 46 C112.333 47 110.667 48 109 49 C108.291 50.501 107.883 51.972 107.445 53.57 C106.76 55.771 105.934 56.756 104 58 C101.932 58.238 100.094 58.14 98 58 C97.67 57.34 97.67 57.34 96 54 C95.01 54 94.02 54 93 54 C92.67 50.37 92.34 46.74 92 43 C90.68 43 89.36 43 88 43 C87.835 43.33 87.835 43.33 87 45 C85.003 45.726 83.03 46.385 81 47 C77.731 48.036 75.859 49.031 73.625 51.562 C72.145 53.17 71.33 53.913 69.199 54.477 C67.987 54.612 66.77 54.71 65.551 54.762 C64 55 64 55 62 57 C60.527 57.598 60.527 57.598 58.938 58.062 C56.097 58.903 56.097 58.903 55 60 C52.596 60.329 50.174 60.325 47.75 60.375 C47.415 60.394 47.415 60.394 45.723 60.488 C40.822 60.575 40.822 60.575 38.471 58.931 C37.216 57.676 36.105 56.387 35 55 C34.34 54.34 33.68 53.68 33 53 C31.192 48.782 30.82 45.403 31.027 40.832 C31 38.998 30.676 37.693 30 36 C28.68 36 27.36 36 26 36 C26 40.95 26 45.9 26 51 C25.67 51.165 25.67 51.165 24 52 C23.997 52.424 23.995 52.848 23.992 53.285 C23.667 58.221 21.972 60.976 18.613 64.559 C15.217 67.593 11.38 68.249 7 69 C6.67 68.01 6.34 67.02 6 66 C4.35 65.67 2.7 65.34 1 65 C1 64.01 1 63.02 1 62 C0.01 62 -0.98 62 -2 62 C-2 61.01 -2 60.02 -2 59 C-2.99 58.67 -3.98 58.34 -5 58 C-5.52 53.011 -5.505 49.163 -2.812 44.812 C-1.116 42.345 0.722 40.257 2.812 38.125 C5.077 35.502 5.447 33.379 5.625 29.938 C5.424 25.596 5.424 25.596 3.902 23.457 C3.015 22.658 2.107 21.881 1.18 21.129 C0 20 0 20 -0.812 17.188 C-0.908 16.127 -0.968 15.064 -1 14 C-1.014 13.678 -1.014 13.678 -1.082 12.051 C-1.171 7.795 -0.718 4.307 0 0 Z " fill="#ED2F24" transform="translate(30,54)"/>
<path d="M0 0 C4.62 0 9.24 0 14 0 C14.33 1.65 14.66 3.3 15 5 C15.99 5 16.98 5 18 5 C18 6.65 18 8.3 18 10 C17.196 10.495 16.391 10.99 15.562 11.5 C13.695 12.956 13.073 13.732 12.445 16.047 C12.214 18.023 12.099 20.013 12 22 C14.97 22.33 17.94 22.66 21 23 C21.66 22.34 22.32 21.68 23 21 C24.989 20.454 26.946 20.268 29 20 C29.33 19.34 29.66 18.68 30 18 C30.554 17.951 31.109 17.902 31.68 17.852 C32.404 17.777 33.129 17.702 33.875 17.625 C34.594 17.555 35.314 17.486 36.055 17.414 C38 17 38 17 40 15 C42.312 14.625 42.312 14.625 45 15 C46.884 16.178 48.347 17.489 50 19 C49.646 21.616 49.379 23.507 47.75 25.625 C42.667 29.619 37.35 31.912 31 33 C30.918 33.619 30.835 34.237 30.75 34.875 C30.502 35.576 30.255 36.278 30 37 C28.68 37.66 27.36 38.32 26 39 C25.67 43.95 25.34 48.9 25 54 C24.01 54.33 23.02 54.66 22 55 C21.897 55.433 21.897 55.433 21.375 57.625 C19.815 62.271 16.45 65.352 12.449 68.043 C9.238 69.811 6.722 70.328 3 70 C3 68.68 3 67.36 3 66 C2.381 65.918 1.762 65.835 1.125 65.75 C-1 65 -1 65 -2.25 62.938 C-2.498 62.298 -2.745 61.659 -3 61 C-3.99 61 -4.98 61 -6 61 C-6.33 59.68 -6.66 58.36 -7 57 C-7.66 57 -8.32 57 -9 57 C-9 55.02 -9 53.04 -9 51 C-8.505 50.835 -8.505 50.835 -6 50 C-5.897 49.299 -5.794 48.597 -5.688 47.875 C-4.904 44.598 -3.606 41.939 -2 39 C-1.34 39 -0.68 39 0 39 C0.124 38.526 0.248 38.051 0.375 37.562 C0.581 37.047 0.788 36.531 1 36 C1.33 35.835 1.33 35.835 3 35 C4.42 29.065 4.42 29.065 3.434 26.562 C2.652 25.355 1.827 24.177 1 23 C0.667 21.667 0.333 20.333 0 19 C-0.66 18.67 -1.32 18.34 -2 18 C-2.058 15.563 -2.094 13.125 -2.125 10.688 C-2.142 9.997 -2.159 9.307 -2.176 8.596 C-2.182 7.929 -2.189 7.262 -2.195 6.574 C-2.206 5.962 -2.216 5.349 -2.227 4.718 C-2 3 -2 3 0 0 Z " fill="#ED2F24" transform="translate(447,54)"/>
<path d="M0 0 C3.63 0 7.26 0 11 0 C13.056 3.372 14.335 5.583 13.75 9.562 C13.518 10.712 13.268 11.858 13 13 C12.907 13.485 12.907 13.485 12.438 15.938 C12.293 16.618 12.149 17.299 12 18 C11.67 18.165 11.67 18.165 10 19 C9.835 19.825 9.835 19.825 9 24 C8.67 24.165 8.67 24.165 7 25 C6.835 25.825 6.835 25.825 6 30 C5.67 30.165 5.67 30.165 4 31 C3.969 31.371 3.969 31.371 3.812 33.25 C2.961 36.131 2.775 36.401 0.5 38 C-0.875 38.973 -0.875 38.973 -2 40 C-2.342 41.665 -2.674 43.332 -3 45 C-4.15 46.367 -5.404 47.527 -6.723 48.73 C-8.611 50.607 -9.735 52.669 -11 55 C-11.99 55 -12.98 55 -14 55 C-14.66 56.32 -15.32 57.64 -16 59 C-19.318 59.772 -21.305 60.182 -24.625 59.312 C-28.696 57.063 -31.258 54.298 -33 50 C-33.189 48.02 -33.281 46.187 -33.266 44.211 C-33.268 43.666 -33.269 43.122 -33.271 42.561 C-33.273 41.416 -33.269 40.272 -33.261 39.127 C-33.25 37.373 -33.261 35.621 -33.273 33.867 C-33.272 32.753 -33.27 31.638 -33.266 30.523 C-33.27 29.999 -33.274 29.475 -33.278 28.936 C-33.259 27.458 -33.259 27.458 -33 25 C-32.34 24.34 -31.68 23.68 -31 23 C-30.797 21.52 -30.797 21.52 -30.75 19.812 C-30.267 15.711 -28.406 13.29 -25.617 10.328 C-24 9 -24 9 -21.375 8.312 C-18.94 9.017 -17.574 9.883 -15.825 11.71 C-14.234 14.198 -14.587 16.897 -14.75 19.75 C-14.768 20.352 -14.786 20.954 -14.805 21.574 C-14.852 23.05 -14.923 24.525 -15 26 C-12.69 25.34 -10.38 24.68 -8 24 C-8.062 23.134 -8.124 22.267 -8.188 21.375 C-8.188 17.646 -6.818 15.174 -5 12 C-2.917 8.08 -1.314 4.244 0 0 Z " fill="#ED2F24" transform="translate(219,54)"/>
<path d="M0 0 C2.462 -0.459 4.549 -0.563 7 0 C9.519 1.983 11.444 4.196 13 7 C13.16 9.234 13.16 9.234 13 11 C12.34 11 11.68 11 11 11 C11 12.98 11 14.96 11 17 C10.01 17.33 9.02 17.66 8 18 C8 19.98 8 21.96 8 24 C5.812 24.688 5.812 24.688 3 25 C0.163 23.614 -1.77 22.23 -4 20 C-4.199 17.781 -4.279 15.716 -4.25 13.5 C-4.258 12.906 -4.265 12.311 -4.273 11.699 C-4.266 10.13 -4.14 8.563 -4 7 C-3.34 6.34 -2.68 5.68 -2 5 C-1.293 3.35 -0.621 1.684 0 0 Z " fill="#ED2F24" transform="translate(262,24)"/>
<path d="M0 0 C2.31 0 4.62 0 7 0 C10.856 3.977 10.856 3.977 11.266 6.891 C11.252 8.61 11.177 10.29 11 12 C10.67 12.165 10.67 12.165 9 13 C8.438 14.375 8.438 14.375 8 16 C7.562 17.625 7.562 17.625 7 19 C6.34 19.33 5.68 19.66 5 20 C4.375 22.062 4.375 22.062 4 24 C2.915 23.912 1.832 23.803 0.75 23.688 C0.147 23.629 -0.457 23.571 -1.078 23.512 C-3 23 -3 23 -7 20 C-7 16.37 -7 12.74 -7 9 C-6.34 8.67 -5.68 8.34 -5 8 C-4.67 6.35 -4.34 4.7 -4 3 C-3.01 3 -2.02 3 -1 3 C-0.67 2.01 -0.34 1.02 0 0 Z " fill="#ED2F24" transform="translate(379,24)"/>
<path d="M0 0 C4.62 0 9.24 0 14 0 C13 6 13 6 12 8 C13.32 7.67 14.64 7.34 16 7 C15.67 8.32 15.34 9.64 15 11 C13.35 11 11.7 11 10 11 C10 14.63 10 18.26 10 22 C9.34 22 8.68 22 8 22 C7.67 23.32 7.34 24.64 7 26 C4.133 25.427 3.139 25.139 1 23 C0.835 22.319 0.67 21.639 0.5 20.938 C0.335 20.298 0.17 19.659 0 19 C-0.66 18.67 -1.32 18.34 -2 18 C-2.058 15.563 -2.094 13.125 -2.125 10.688 C-2.142 9.997 -2.159 9.307 -2.176 8.596 C-2.182 7.929 -2.189 7.262 -2.195 6.574 C-2.206 5.962 -2.216 5.349 -2.227 4.718 C-2 3 -2 3 0 0 Z " fill="#ED2F24" transform="translate(447,54)"/>
<path d="M0 0 C1.227 -0.01 1.227 -0.01 7.438 -0.062 C8.212 -0.072 8.986 -0.081 9.783 -0.09 C10.39 -0.093 10.996 -0.095 11.621 -0.098 C11.933 -0.1 11.933 -0.1 13.51 -0.114 C14.001 -0.076 14.493 -0.039 15 0 C15.33 0.33 15.66 0.66 16 1 C16.072 2.519 16.084 4.042 16.062 5.562 C16.053 6.389 16.044 7.215 16.035 8.066 C16.024 8.704 16.012 9.343 16 10 C14.35 10.33 12.7 10.66 11 11 C10.67 13.64 10.34 16.28 10 19 C9.01 19.33 8.02 19.66 7 20 C7 20.99 7 21.98 7 23 C8.65 22.34 10.3 21.68 12 21 C12.33 21.99 12.66 22.98 13 24 C12.01 24 11.02 24 10 24 C9.67 25.65 9.34 27.3 9 29 C8.01 28.67 7.02 28.34 6 28 C5.609 26.503 5.219 25.005 4.828 23.508 C4 22 4 22 0 20 C0 13.4 0 6.8 0 0 Z " fill="#ED2F24" transform="translate(31,55)"/>
<path d="M0 0 C0.787 1.835 1.072 2.722 0.562 4.688 C0.377 5.121 0.191 5.554 0 6 C0.99 6 1.98 6 3 6 C3 8.97 3 11.94 3 15 C2.01 15.33 1.02 15.66 0 16 C-0.33 16.99 -0.66 17.98 -1 19 C-2.98 19 -4.96 19 -7 19 C-7.054 17.041 -7.094 15.084 -7.125 13.125 C-7.142 12.569 -7.159 12.014 -7.176 11.441 C-7.194 9.96 -7.102 8.478 -7 7 C-6.34 6.34 -5.68 5.68 -5 5 C-5.33 3.68 -5.66 2.36 -6 1 C-3.761 0.147 -2.508 0 0 0 Z " fill="#ED2F24" transform="translate(269,25)"/>
<path d="M0 0 C1.104 -0.054 2.208 -0.093 3.312 -0.125 C3.927 -0.148 4.542 -0.171 5.176 -0.195 C7 0 7 0 10 2 C10 7.28 10 12.56 10 18 C9.01 18.33 8.02 18.66 7 19 C7 18.34 7 17.68 7 17 C7.66 17 8.32 17 9 17 C9 12.71 9 8.42 9 4 C7.68 3.67 6.36 3.34 5 3 C5 2.34 5 1.68 5 1 C3.68 1 2.36 1 1 1 C1.33 2.98 1.66 4.96 2 7 C0.688 8.5 0.688 8.5 -1 10 C-1.99 10 -2.98 10 -4 10 C-3.67 10.99 -3.34 11.98 -3 13 C-3.33 13.495 -3.33 13.495 -5 16 C-5.66 16 -6.32 16 -7 16 C-7.33 15.34 -7.66 14.68 -8 14 C-9.65 14.33 -11.3 14.66 -13 15 C-13.33 16.32 -13.66 17.64 -14 19 C-17.63 19 -21.26 19 -25 19 C-25 18.67 -25 18.34 -25 18 C-21.7 18 -18.4 18 -15 18 C-14.67 16.68 -14.34 15.36 -14 14 C-12.363 12.832 -12.363 12.832 -10.312 11.812 C-5.304 8.943 -2.829 4.919 0 0 Z M-8 16 C-8 19 -8 19 -8 19 Z " fill="#ED2F24" transform="translate(362,60)"/>
<path d="M0 0 C5.61 0 11.22 0 17 0 C19.007 3.01 19.275 3.673 19.25 7.062 C19.255 7.755 19.26 8.447 19.266 9.16 C19 11 19 11 17 13 C14.375 13.125 14.375 13.125 12 13 C12.747 16.206 13.453 19.153 15.25 21.938 C17.932 23.566 19.886 23.265 23 23 C23.66 22.67 24.32 22.34 25 22 C24.67 22.99 24.34 23.98 24 25 C16.268 25.345 16.268 25.345 13.188 23.938 C11 23 11 23 9.188 23.375 C8.992 23.478 8.992 23.478 8 24 C8 23.01 8 22.02 8 21 C8.66 20.67 9.32 20.34 10 20 C10.061 19.434 10.121 18.868 10.184 18.285 C10.267 17.552 10.351 16.818 10.438 16.062 C10.519 15.332 10.6 14.601 10.684 13.848 C11 12 11 12 12 11 C13.666 10.959 15.334 10.957 17 11 C16.67 8.03 16.34 5.06 16 2 C11.05 1.67 6.1 1.34 1 1 C1 7.27 1 13.54 1 20 C0.67 20 0.34 20 0 20 C-1.392 13.041 -1.171 7.024 0 0 Z " fill="#ED2F24" transform="translate(30,54)"/>
<path d="M0 0 C0.99 0 1.98 0 3 0 C3.33 1.98 3.66 3.96 4 6 C3.34 6.66 2.68 7.32 2 8 C1.312 9.658 0.644 11.325 0 13 C-0.33 13.33 -0.66 13.66 -1 14 C-1.212 16.255 -1.376 18.49 -1.5 20.75 C-1.734 24.927 -2.065 28.917 -3 33 C-3.66 32.67 -4.32 32.34 -5 32 C-5.33 26.06 -5.66 20.12 -6 14 C-5.34 13.67 -4.68 13.34 -4 13 C-3.67 11.35 -3.34 9.7 -3 8 C-2.34 7.67 -1.68 7.34 -1 7 C-0.67 4.69 -0.34 2.38 0 0 Z " fill="#ED2F24" transform="translate(241,68)"/>
<path d="M0 0 C3.3 0 6.6 0 10 0 C9.814 0.784 9.629 1.568 9.438 2.375 C9 5 9 5 10 7 C6.25 9 6.25 9 4 9 C3.67 11.31 3.34 13.62 3 16 C2.01 16 1.02 16 0 16 C0 10.72 0 5.44 0 0 Z " fill="#ED2F24" transform="translate(34,58)"/>
<path d="M0 0 C0.66 0.33 1.32 0.66 2 1 C1.646 3.616 1.379 5.507 -0.25 7.625 C-5.333 11.619 -10.65 13.912 -17 15 C-17.082 15.619 -17.165 16.237 -17.25 16.875 C-17.498 17.576 -17.745 18.278 -18 19 C-18.66 19.33 -18.66 19.33 -22 21 C-22.33 25.95 -22.66 30.9 -23 36 C-23.66 36 -24.32 36 -25 36 C-25.117 33.584 -25.187 31.168 -25.25 28.75 C-25.284 28.068 -25.317 27.386 -25.352 26.684 C-25.447 21.767 -25.447 21.767 -24.197 19.623 C-23.172 18.516 -23.172 18.516 -21 17 C-20.01 17 -19.02 17 -18 17 C-18 16.01 -18 15.02 -18 14 C-16.68 14 -15.36 14 -14 14 C-14 12.68 -14 11.36 -14 10 C-12.02 10 -10.04 10 -8 10 C-8 9.01 -8 8.02 -8 7 C-5.69 6.34 -3.38 5.68 -1 5 C-0.67 3.35 -0.34 1.7 0 0 Z " fill="#ED2F24" transform="translate(495,72)"/>
<path d="M0 0 C2.31 0.33 4.62 0.66 7 1 C7 1.66 7 2.32 7 3 C7.619 3.289 8.238 3.578 8.875 3.875 C11 5 11 5 13 7 C13.644 9.749 13.617 12.247 13 15 C11.596 16.655 10.054 17.944 8.402 19.348 C6.13 22.025 6.176 24.837 6.008 28.242 C6.005 28.822 6.003 29.402 6 30 C6.543 29.928 7.085 29.856 7.645 29.781 C8.36 29.688 9.075 29.596 9.812 29.5 C10.52 29.407 11.228 29.314 11.957 29.219 C14 29 14 29 17 29 C16.34 29.66 15.68 30.32 15 31 C13.072 31.145 11.295 31.188 9.375 31.125 C8.859 31.116 8.344 31.107 7.812 31.098 C6.541 31.074 5.271 31.038 4 31 C4.19 21.131 4.19 21.131 6.145 18.402 C7.033 17.647 7.936 16.909 8.855 16.191 C10.748 14.221 10.749 11.989 10.957 9.355 C10.964 9.132 10.964 9.132 11 8 C8.75 6.875 8.75 6.875 6 6 C3.688 6.875 3.688 6.875 2 8 C2 7.34 2 6.68 2 6 C2.66 5.67 3.32 5.34 4 5 C4.625 3.438 4.625 3.438 5 2 C3.35 2 1.7 2 0 2 C0 1.34 0 0.68 0 0 Z " fill="#ED2F24" transform="translate(246,59)"/>
<path d="M0 0 C2.23 -0.081 4.457 -0.141 6.688 -0.188 C7.313 -0.213 7.939 -0.238 8.584 -0.264 C13.027 -0.333 15.42 0.341 19 3 C20.465 4.255 21.681 5.583 23 7 C22.25 12.75 22.25 12.75 20 15 C17.947 14.487 15.906 13.972 13.875 13.375 C12 13 12 13 10 14 C10 12.68 10 11.36 10 10 C11.98 10 13.96 10 16 10 C16 9.01 16 8.02 16 7 C16.66 7 17.32 7 18 7 C18 6.01 18 5.02 18 4 C17.361 3.856 16.721 3.711 16.062 3.562 C14 3 14 3 13 2 C10.807 1.764 8.637 1.579 6.438 1.438 C5.822 1.394 5.206 1.351 4.572 1.307 C3.048 1.2 1.524 1.1 0 1 C0 0.67 0 0.34 0 0 Z " fill="#ED2F24" transform="translate(295,60)"/>
<path d="M0 0 C0.33 0 0.66 0 1 0 C1.025 0.706 1.05 1.412 1.076 2.14 C1.171 4.771 1.271 7.403 1.372 10.034 C1.415 11.171 1.457 12.308 1.497 13.444 C1.555 15.083 1.619 16.721 1.684 18.359 C1.72 19.344 1.757 20.328 1.795 21.343 C1.976 23.689 2.343 25.747 3 28 C4.32 28 5.64 28 7 28 C7 28.99 7 29.98 7 31 C10.63 31 14.26 31 18 31 C18.33 30.01 18.66 29.02 19 28 C21.062 26.812 21.062 26.812 23 26 C22.67 27.32 22.34 28.64 22 30 C21.01 30 20.02 30 19 30 C18.34 31.32 17.68 32.64 17 34 C13.682 34.772 11.695 35.182 8.375 34.312 C4.309 32.065 1.73 29.299 0 25 C-0.166 22.996 -0.235 21.139 -0.195 19.141 C-0.194 18.866 -0.194 18.866 -0.187 17.476 C-0.176 15.734 -0.151 13.992 -0.125 12.25 C-0.115 11.064 -0.106 9.878 -0.098 8.691 C-0.076 5.794 -0.041 2.897 0 0 Z " fill="#ED2F24" transform="translate(186,79)"/>
<path d="M0 0 C0.66 0 1.32 0 2 0 C2 2.64 2 5.28 2 8 C2.99 8 3.98 8 5 8 C5 8.99 5 9.98 5 11 C5.99 11 6.98 11 8 11 C8 11.99 8 12.98 8 14 C12.29 14 16.58 14 21 14 C21 14.99 21 15.98 21 17 C9.748 17.914 9.748 17.914 5.578 15.734 C3.826 14.243 2.335 12.874 1 11 C1 10.34 1 9.68 1 9 C0.34 9 -0.32 9 -1 9 C-0.67 6.03 -0.34 3.06 0 0 Z " fill="#ED2F24" transform="translate(350,90)"/>
<path d="M0 0 C1.146 -0.027 2.292 -0.046 3.438 -0.062 C3.757 -0.068 3.757 -0.068 5.371 -0.098 C5.64 -0.082 5.64 -0.082 7 0 C7.33 0.33 7.66 0.66 8 1 C8.073 3.033 8.093 5.031 8.062 7.062 C8.058 7.63 8.053 8.198 8.049 8.783 C8.037 10.189 8.019 11.594 8 13 C10.64 13 13.28 13 16 13 C16 13.66 16 14.32 16 15 C17.32 14.34 18.64 13.68 20 13 C20.33 11.35 20.66 9.7 21 8 C21.66 8.33 22.32 8.66 23 9 C22.157 11.918 21.435 14.347 19.75 16.875 C17.122 18.564 15.085 18.206 12 18 C11.34 16.68 10.68 15.36 10 14 C9.01 14 8.02 14 7 14 C6.67 10.37 6.34 6.74 6 3 C4.68 3 3.36 3 2 3 C1.67 3.66 1.34 4.32 1 5 C-0.98 5.33 -2.96 5.66 -5 6 C-5 5.34 -5 4.68 -5 4 C-3.35 4 -1.7 4 0 4 C0 2.68 0 1.36 0 0 Z " fill="#ED2F24" transform="translate(116,94)"/>
<path d="M0 0 C0.825 0.165 0.825 0.165 5 1 C4.67 2.65 4.34 4.3 4 6 C0.239 6.823 -3.499 7.316 -7.328 7.719 C-9 8 -9 8 -10 9 C-12.006 9.139 -13.987 9.043 -16 9 C-16 8.01 -16 7.02 -16 6 C-14.02 5.67 -12.04 5.34 -10 5 C-9.67 4.34 -9.34 3.68 -9 3 C-6.36 2.67 -3.72 2.34 -1 2 C-0.67 1.34 -0.34 0.68 0 0 Z " fill="#ED2F24" transform="translate(487,70)"/>
<path d="M0 0 C0.66 0.33 1.32 0.66 2 1 C1.518 1.531 1.036 2.062 0.539 2.609 C-0.093 3.316 -0.724 4.022 -1.375 4.75 C-1.688 5.098 -1.688 5.098 -3.273 6.859 C-5.537 9.666 -6.895 11.728 -7.195 15.359 C-7.172 16.148 -7.149 16.937 -7.125 17.75 C-7.107 18.549 -7.089 19.348 -7.07 20.172 C-7.047 20.775 -7.024 21.378 -7 22 C-6.34 22.33 -5.68 22.66 -5 23 C-5 23.99 -5 24.98 -5 26 C-4.01 26 -3.02 26 -2 26 C-2 26.99 -2 27.98 -2 29 C-0.35 29 1.3 29 3 29 C3 29.99 3 30.98 3 32 C1.02 31.34 -0.96 30.68 -3 30 C-3 29.01 -3 28.02 -3 27 C-3.99 27 -4.98 27 -6 27 C-6 26.01 -6 25.02 -6 24 C-7.32 23.67 -8.64 23.34 -10 23 C-10.688 11.185 -10.688 11.185 -8.375 7.562 C-5.97 4.647 -3.01 2.267 0 0 Z " fill="#ED2F24" transform="translate(33,90)"/>
<path d="M0 0 C1.891 0.273 1.891 0.273 2.891 1.273 C2.962 2.793 2.975 4.315 2.953 5.836 C2.944 6.662 2.935 7.489 2.926 8.34 C2.914 8.978 2.903 9.616 2.891 10.273 C3.551 10.273 4.211 10.273 4.891 10.273 C4.891 10.933 4.891 11.593 4.891 12.273 C5.489 12.542 6.087 12.81 6.703 13.086 C8.891 14.273 8.891 14.273 10.109 15.805 C12.745 17.978 15.253 17.835 18.578 17.961 C18.881 17.978 18.881 17.978 20.416 18.064 C21.907 18.147 23.399 18.212 24.891 18.273 C24.891 18.603 24.891 18.933 24.891 19.273 C22.619 19.354 20.35 19.414 18.078 19.461 C17.436 19.486 16.793 19.511 16.131 19.537 C11.319 19.612 11.319 19.612 9.105 17.863 C8.705 17.339 8.304 16.814 7.891 16.273 C6.539 15.359 6.539 15.359 5.266 14.648 C2.891 13.273 2.891 13.273 1.891 12.273 C1.819 10.587 1.807 8.898 1.828 7.211 C1.837 6.292 1.846 5.373 1.855 4.426 C1.867 3.716 1.879 3.005 1.891 2.273 C-0.749 2.603 -3.389 2.933 -6.109 3.273 C-6.439 3.933 -6.769 4.593 -7.109 5.273 C-8.759 5.273 -10.409 5.273 -12.109 5.273 C-8.677 0.444 -5.821 -0.251 0 0 Z " fill="#ED2F24" transform="translate(346.109375,88.7265625)"/>
<path d="M0 0 C4.62 0 9.24 0 14 0 C14 0.33 14 0.66 14 1 C13.218 1.061 12.435 1.121 11.629 1.184 C10.607 1.268 9.585 1.353 8.562 1.438 C8.046 1.477 7.53 1.516 6.998 1.557 C5.662 1.67 4.33 1.832 3 2 C2 3 2 3 1.795 4.399 C1.758 4.98 1.721 5.561 1.684 6.16 C1.642 6.789 1.6 7.417 1.557 8.064 C1.517 8.724 1.478 9.383 1.438 10.062 C1.394 10.726 1.351 11.389 1.307 12.072 C1.2 13.715 1.098 15.357 1 17 C0.01 17 -0.98 17 -2 17 C-2.054 14.729 -2.094 12.459 -2.125 10.188 C-2.142 9.545 -2.159 8.902 -2.176 8.24 C-2.182 7.618 -2.189 6.996 -2.195 6.355 C-2.206 5.785 -2.216 5.214 -2.227 4.626 C-2 3 -2 3 0 0 Z " fill="#ED2F24" transform="translate(447,54)"/>
<path d="M0 0 C4.7 3.133 4.7 3.133 5.555 5.602 C5.812 7.25 5.812 7.25 6 10 C5.34 10 4.68 10 4 10 C4 11.98 4 13.96 4 16 C3.01 16.33 2.02 16.66 1 17 C1 18.98 1 20.96 1 23 C-1.915 23.81 -3.461 24.218 -6.312 23.062 C-6.591 22.887 -6.591 22.887 -8 22 C-5.07 20.535 -3.18 21.378 0 22 C0 20.02 0 18.04 0 16 C0.66 15.67 1.32 15.34 2 15 C2.33 12.03 2.66 9.06 3 6 C2.01 6 1.02 6 0 6 C0 4.02 0 2.04 0 0 Z " fill="#ED2F24" transform="translate(269,25)"/>
<path d="M0 0 C3.63 0.33 7.26 0.66 11 1 C11 1.99 11 2.98 11 4 C7.37 4 3.74 4 0 4 C-0.33 4.99 -0.66 5.98 -1 7 C-2.32 7 -3.64 7 -5 7 C-5.33 5.68 -5.66 4.36 -6 3 C-4.35 2.67 -2.7 2.34 -1 2 C-0.67 1.34 -0.34 0.68 0 0 Z " fill="#ED2F24" transform="translate(301,91)"/>
<path d="M0 0 C0.99 0 1.98 0 3 0 C2.555 4.451 -0.338 6.783 -3.375 9.75 C-3.87 10.257 -4.365 10.763 -4.875 11.285 C-5.357 11.763 -5.839 12.242 -6.336 12.734 C-6.555 12.952 -6.555 12.952 -7.666 14.054 C-9 15 -9 15 -12 15 C-12 14.01 -12 13.02 -12 12 C-11.01 12 -10.02 12 -9 12 C-9 11.01 -9 10.02 -9 9 C-8.01 9 -7.02 9 -6 9 C-6 8.01 -6 7.02 -6 6 C-5.01 6 -4.02 6 -3 6 C-3 5.01 -3 4.02 -3 3 C-2.01 3 -1.02 3 0 3 C0 2.01 0 1.02 0 0 Z " fill="#ED2F24" transform="translate(155,77)"/>
<path d="M0 0 C0 0.99 0 1.98 0 3 C-1.65 3 -3.3 3 -5 3 C-4.67 4.32 -4.34 5.64 -4 7 C-4.99 7.99 -5.98 8.98 -7 10 C-7 9.34 -7 8.68 -7 8 C-9.97 7.67 -12.94 7.34 -16 7 C-16.33 7.99 -16.66 8.98 -17 10 C-17.99 9.835 -17.99 9.835 -23 9 C-22.381 8.711 -21.762 8.422 -21.125 8.125 C-19 7 -19 7 -17 5 C-14.617 4.586 -14.617 4.586 -11.875 4.375 C-10.965 4.3 -10.055 4.225 -9.117 4.148 C-8.768 4.124 -8.768 4.124 -7 4 C-6.67 3.34 -6.34 2.68 -6 2 C-4.59 1.367 -4.59 1.367 -2.938 0.875 C-2.39 0.707 -1.842 0.54 -1.277 0.367 C-0.856 0.246 -0.434 0.125 0 0 Z " fill="#ED2F24" transform="translate(336,79)"/>
<path d="M0 0 C0.33 1.32 0.66 2.64 1 4 C1.99 4 2.98 4 4 4 C4 5.65 4 7.3 4 9 C3.196 9.495 2.391 9.99 1.562 10.5 C-0.305 11.956 -0.927 12.732 -1.555 15.047 C-1.786 17.023 -1.901 19.013 -2 21 C-0.515 21.33 -0.515 21.33 7 23 C7 23.33 7 23.66 7 24 C5.896 24.054 4.792 24.093 3.688 24.125 C3.073 24.148 2.458 24.171 1.824 24.195 C0 24 0 24 -3 22 C-3 18.7 -3 15.4 -3 12 C-1.68 11.01 -0.36 10.02 1 9 C1.75 7.312 1.75 7.312 2 6 C0.68 6.33 -0.64 6.66 -2 7 C-1.34 4.69 -0.68 2.38 0 0 Z " fill="#ED2F24" transform="translate(461,55)"/>
<path d="M0 0 C1.65 0 3.3 0 5 0 C5.99 1.32 6.98 2.64 8 4 C6.68 4 5.36 4 4 4 C3.67 4.99 3.34 5.98 3 7 C0.688 7.625 0.688 7.625 -2 8 C-2.99 7.34 -3.98 6.68 -5 6 C-3.35 4.02 -1.7 2.04 0 0 Z " fill="#ED2F24" transform="translate(195,63)"/>
<path d="M0 0 C3.3 0 6.6 0 10 0 C9.67 0.99 9.34 1.98 9 3 C6.03 3 3.06 3 0 3 C-0.33 3.99 -0.66 4.98 -1 6 C-2.65 6 -4.3 6 -6 6 C-6.33 4.68 -6.66 3.36 -7 2 C-5.02 2 -3.04 2 -1 2 C-0.67 1.34 -0.34 0.68 0 0 Z " fill="#ED2F24" transform="translate(338,80)"/>
<path d="M0 0 C2.31 0.33 4.62 0.66 7 1 C6.375 2.375 6.375 2.375 5 4 C0.032 6.302 -4.593 6.216 -10 6 C-10 5.01 -10 4.02 -10 3 C-8.515 2.835 -8.515 2.835 -1 2 C-0.67 1.34 -0.34 0.68 0 0 Z " fill="#ED2F24" transform="translate(55,76)"/>
<path d="M0 0 C0.99 0 1.98 0 3 0 C3 4.29 3 8.58 3 13 C2.34 13 1.68 13 1 13 C0.67 13.99 0.34 14.98 0 16 C-0.99 16 -1.98 16 -3 16 C-3 15.01 -3 14.02 -3 13 C-2.01 13 -1.02 13 0 13 C0 8.71 0 4.42 0 0 Z " fill="#ED2F24" transform="translate(368,64)"/>
<path d="M0 0 C0.66 0.33 1.32 0.66 2 1 C1.646 3.616 1.379 5.507 -0.25 7.625 C-4.622 11.06 -8.638 12.687 -14 14 C-14 12.68 -14 11.36 -14 10 C-12.02 10 -10.04 10 -8 10 C-8 9.01 -8 8.02 -8 7 C-5.69 6.34 -3.38 5.68 -1 5 C-0.67 3.35 -0.34 1.7 0 0 Z " fill="#ED2F24" transform="translate(495,72)"/>
<path d="M0 0 C0.165 0.33 0.165 0.33 1 2 C-2.062 4.817 -4.404 5.402 -8.414 5.691 C-10 6 -10 6 -12 8 C-13.473 8.598 -13.473 8.598 -15.062 9.062 C-17.903 9.903 -17.903 9.903 -19 11 C-20.49 11.114 -20.49 11.114 -22.379 11.098 C-23.052 11.094 -23.726 11.091 -24.42 11.088 C-25.127 11.08 -25.834 11.071 -26.562 11.062 C-26.918 11.06 -26.918 11.06 -28.717 11.049 C-30.478 11.037 -32.239 11.021 -34 11 C-34 10.67 -34 10.34 -34 10 C-33.013 9.951 -32.025 9.902 -31.008 9.852 C-29.714 9.777 -28.419 9.701 -27.125 9.625 C-26.474 9.594 -25.823 9.563 -25.152 9.531 C-24.527 9.493 -23.902 9.454 -23.258 9.414 C-22.682 9.383 -22.106 9.351 -21.512 9.319 C-20 9 -20 9 -18 7 C-16.527 6.402 -16.527 6.402 -14.938 5.938 C-12.097 5.097 -12.097 5.097 -11 4 C-9.371 3.902 -9.371 3.902 -7.438 3.938 C-7.117 3.942 -7.117 3.942 -5.496 3.965 C-5.249 3.971 -5.249 3.971 -4 4 C-4 3.01 -4 2.02 -4 1 C-2.68 0.67 -1.36 0.34 0 0 Z " fill="#ED2F24" transform="translate(104,103)"/>
<path d="M0 0 C0 3 0 3 -1.07 4.347 C-1.56 4.796 -2.05 5.245 -2.555 5.707 C-3.087 6.212 -3.619 6.716 -4.168 7.236 C-5.296 8.278 -6.426 9.317 -7.559 10.354 C-11.177 13.793 -12.621 16.234 -14 21 C-16.625 22.375 -16.625 22.375 -19 23 C-18.546 22.443 -18.093 21.886 -17.625 21.312 C-16 19 -16 19 -15.344 16.812 C-13.726 12.616 -10.047 9.737 -6.875 6.688 C-6.216 6.042 -5.558 5.397 -4.879 4.732 C-3.259 3.148 -1.633 1.571 0 0 Z " fill="#ED2F24" transform="translate(158,79)"/>
<path d="M0 0 C0.99 0 1.98 0 3 0 C3 7.26 3 14.52 3 22 C2.34 22 1.68 22 1 22 C0.67 14.74 0.34 7.48 0 0 Z " fill="#ED2F24" transform="translate(187,79)"/>
<path d="M0 0 C0.99 0.33 1.98 0.66 3 1 C2.67 1.66 2.34 2.32 2 3 C1.01 3 0.02 3 -1 3 C-1 3.99 -1 4.98 -1 6 C-1.99 6 -2.98 6 -4 6 C-4 6.99 -4 7.98 -4 9 C-4.99 9 -5.98 9 -7 9 C-7 10.32 -7 11.64 -7 13 C-7.99 12.67 -8.98 12.34 -10 12 C-9.639 9.083 -9.013 8.013 -6.934 5.859 C-6.109 5.147 -5.277 4.444 -4.438 3.75 C-4.013 3.386 -3.588 3.023 -3.15 2.648 C-2.107 1.758 -1.054 0.878 0 0 Z " fill="#ED2F24" transform="translate(38,88)"/>
<path d="M0 0 C0.66 0 1.32 0 2 0 C2.33 2.64 2.66 5.28 3 8 C1.02 9.98 -0.96 11.96 -3 14 C-4.32 13.67 -5.64 13.34 -7 13 C-7 12.34 -7 11.68 -7 11 C-5.68 11 -4.36 11 -3 11 C-3 10.01 -3 9.02 -3 8 C-2.01 8 -1.02 8 0 8 C0 5.36 0 2.72 0 0 Z " fill="#ED2F24" transform="translate(50,105)"/>
<path d="M0 0 C1.32 0.33 2.64 0.66 4 1 C3.75 2.375 3.75 2.375 3 4 C-0.001 5.875 -2.245 6.228 -5.75 6.125 C-6.549 6.107 -7.348 6.089 -8.172 6.07 C-8.775 6.047 -9.378 6.024 -10 6 C-10 5.01 -10 4.02 -10 3 C-8.515 2.835 -8.515 2.835 -1 2 C-0.67 1.34 -0.34 0.68 0 0 Z " fill="#ED2F24" transform="translate(94,94)"/>
<path d="M0 0 C0.66 0.33 1.32 0.66 2 1 C1.67 1.33 1.34 1.66 1 2 C0.752 4.235 0.616 5.83 1 8 C2.625 10.375 2.625 10.375 5 12 C7.906 12.526 10.326 12.337 13 11 C12.67 11.99 12.34 12.98 12 14 C4.268 14.345 4.268 14.345 1.188 12.938 C-1 12 -1 12 -2.812 12.375 C-3.204 12.581 -3.596 12.787 -4 13 C-4 12.01 -4 11.02 -4 10 C-3.34 9.67 -2.68 9.34 -2 9 C-1.939 8.434 -1.879 7.868 -1.816 7.285 C-1.733 6.552 -1.649 5.818 -1.562 5.062 C-1.481 4.332 -1.4 3.601 -1.316 2.848 C-1 1 -1 1 0 0 Z " fill="#ED2F24" transform="translate(42,65)"/>
<path d="M0 0 C0.99 0 1.98 0 3 0 C3 3.3 3 6.6 3 10 C3.99 10 4.98 10 6 10 C6 10.99 6 11.98 6 13 C1.125 12.125 1.125 12.125 0 11 C-0.073 9.133 -0.093 7.303 -0.062 5.438 C-0.058 4.917 -0.053 4.397 -0.049 3.861 C-0.037 2.574 -0.019 1.287 0 0 Z " fill="#ED2F24" transform="translate(373,34)"/>
<path d="M0 0 C2.31 0 4.62 0 7 0 C7 1.32 7 2.64 7 4 C4.69 4 2.38 4 0 4 C0 5.32 0 6.64 0 8 C-0.99 7.67 -1.98 7.34 -3 7 C-3 5.68 -3 4.36 -3 3 C-2.34 3 -1.68 3 -1 3 C-0.67 2.01 -0.34 1.02 0 0 Z " fill="#ED2F24" transform="translate(379,24)"/>
<path d="M0 0 C4.62 0 9.24 0 14 0 C14 0.99 14 1.98 14 3 C9.38 3 4.76 3 0 3 C0 2.01 0 1.02 0 0 Z " fill="#ED2F24" transform="translate(70,110)"/>
<path d="M0 0 C0.66 0.33 1.32 0.66 2 1 C1.67 2.65 1.34 4.3 1 6 C0.67 6.165 0.67 6.165 -1 7 C-1.33 8.65 -1.66 10.3 -2 12 C-2.33 12.165 -2.33 12.165 -4 13 C-4.33 14.65 -4.66 16.3 -5 18 C-5.66 17.67 -6.32 17.34 -7 17 C-7.33 14.36 -7.66 11.72 -8 9 C-7.175 9.33 -7.175 9.33 -3 11 C-3.351 10.237 -3.701 9.474 -4.062 8.688 C-5 6 -5 6 -4.625 4.188 C-4.419 3.796 -4.213 3.404 -4 3 C-2.68 3.66 -1.36 4.32 0 5 C0 3.35 0 1.7 0 0 Z " fill="#ED2F24" transform="translate(230,66)"/>
<path d="M0 0 C1.603 -0.081 3.208 -0.139 4.812 -0.188 C5.259 -0.205 5.259 -0.205 7.52 -0.293 C10 0 10 0 11.824 1.324 C13 3 13 3 13 6 C12.01 6 11.02 6 10 6 C10 5.01 10 4.02 10 3 C6.7 3 3.4 3 0 3 C0 2.01 0 1.02 0 0 Z " fill="#ED2F24" transform="translate(160,61)"/>
<path d="M0 0 C2.261 2.713 2.726 5.574 3 9 C2.977 12.798 2.776 16.584 2.562 20.375 C2.509 21.408 2.456 22.44 2.404 23.473 C2.275 25.982 2.14 28.491 2 31 C1.67 31 1.34 31 1 31 C1 23.74 1 16.48 1 9 C0.01 8.67 -0.98 8.34 -2 8 C-1.67 7.67 -1.34 7.34 -1 7 C-0.771 5.82 -0.589 4.63 -0.438 3.438 C-0.354 2.797 -0.27 2.156 -0.184 1.496 C-0.123 1.002 -0.062 0.509 0 0 Z " fill="#ED2F24" transform="translate(189,70)"/>
<path d="M0 0 C1.104 -0.054 2.208 -0.093 3.312 -0.125 C3.927 -0.148 4.542 -0.171 5.176 -0.195 C7 0 7 0 10 2 C10 7.28 10 12.56 10 18 C9.01 18.33 8.02 18.66 7 19 C7 18.34 7 17.68 7 17 C7.66 17 8.32 17 9 17 C9 12.71 9 8.42 9 4 C7.68 3.67 6.36 3.34 5 3 C5 2.34 5 1.68 5 1 C0.25 2.875 0.25 2.875 -2 4 C-1.34 2.68 -0.68 1.36 0 0 Z " fill="#ED2F24" transform="translate(362,60)"/>
<path d="M0 0 C0.66 0.33 1.32 0.66 2 1 C1.157 3.918 0.435 6.347 -1.25 8.875 C-3.878 10.564 -5.915 10.206 -9 10 C-9.33 8.35 -9.66 6.7 -10 5 C-8.35 5 -6.7 5 -5 5 C-5 5.66 -5 6.32 -5 7 C-3.68 6.34 -2.36 5.68 -1 5 C-0.67 3.35 -0.34 1.7 0 0 Z " fill="#ED2F24" transform="translate(137,102)"/>
<path d="M0 0 C0.99 0 1.98 0 3 0 C3 6.27 3 12.54 3 19 C2.34 18.67 1.68 18.34 1 18 C0.67 12.06 0.34 6.12 0 0 Z " fill="#ED2F24" transform="translate(235,82)"/>
<path d="M0 0 C1.497 0.065 2.995 0.13 4.492 0.195 C4.492 0.525 4.492 0.855 4.492 1.195 C2.842 1.195 1.192 1.195 -0.508 1.195 C-0.838 2.845 -1.168 4.495 -1.508 6.195 C-2.993 5.865 -2.993 5.865 -10.508 4.195 C-10.508 5.185 -10.508 6.175 -10.508 7.195 C-13.148 7.195 -15.788 7.195 -18.508 7.195 C-18.508 6.865 -18.508 6.535 -18.508 6.195 C-16.528 5.865 -14.548 5.535 -12.508 5.195 C-12.178 4.535 -11.848 3.875 -11.508 3.195 C-11.231 3.171 -11.231 3.171 -9.828 3.047 C-9.104 2.972 -8.379 2.897 -7.633 2.82 C-6.914 2.751 -6.194 2.681 -5.453 2.609 C-3.019 2.091 -2.383 0.309 0 0 Z " fill="#ED2F24" transform="translate(73.5078125,68.8046875)"/>
<path d="M0 0 C1.65 0.99 3.3 1.98 5 3 C5.467 9.311 5.467 9.311 3.688 11.938 C2 13 2 13 -1 13 C-1 12.01 -1 11.02 -1 10 C-0.01 10 0.98 10 2 10 C2 7.69 2 5.38 2 3 C1.01 2.67 0.02 2.34 -1 2 C-0.67 1.34 -0.34 0.68 0 0 Z " fill="#ED2F24" transform="translate(252,64)"/>
<path d="M0 0 C3.63 0 7.26 0 11 0 C10.67 1.32 10.34 2.64 10 4 C6.04 3.67 2.08 3.34 -2 3 C-1.34 2.01 -0.68 1.02 0 0 Z " fill="#ED2F24" transform="translate(450,55)"/>
<path d="M0 0 C0.99 0.33 1.98 0.66 3 1 C2.656 4.096 1.588 5.618 -0.562 7.75 C-1.368 8.508 -2.178 9.26 -3 10 C-4.32 9.67 -5.64 9.34 -7 9 C-7 8.34 -7 7.68 -7 7 C-5.68 7 -4.36 7 -3 7 C-3 6.01 -3 5.02 -3 4 C-2.01 4 -1.02 4 0 4 C0 2.68 0 1.36 0 0 Z " fill="#ED2F24" transform="translate(464,109)"/>
<path d="M0 0 C0.33 0 0.66 0 1 0 C1 4.62 1 9.24 1 14 C1.99 14.33 2.98 14.66 4 15 C5.448 17.896 6 19.742 6 23 C2.927 20.951 1.267 19.484 0 16 C-0.237 13.245 -0.188 10.513 -0.125 7.75 C-0.116 7.005 -0.107 6.26 -0.098 5.492 C-0.074 3.661 -0.041 1.831 0 0 Z " fill="#ED2F24" transform="translate(444,58)"/>
<path d="M0 0 C0 3 0 3 -1.246 4.551 C-3.106 6.088 -4.896 7.13 -7.062 8.188 C-7.755 8.532 -8.447 8.876 -9.16 9.23 C-11 10 -11 10 -13 10 C-12.67 8.35 -12.34 6.7 -12 5 C-10.35 5.33 -8.7 5.66 -7 6 C-6.67 5.01 -6.34 4.02 -6 3 C-5.381 2.876 -4.762 2.752 -4.125 2.625 C-2 2 -2 2 0 0 Z " fill="#ED2F24" transform="translate(422,103)"/>
<path d="M0 0 C0.66 0 1.32 0 2 0 C2.33 1.65 2.66 3.3 3 5 C2.34 5 1.68 5 1 5 C0.856 5.309 0.856 5.309 0.125 6.875 C-1 9 -1 9 -3 11 C-3.99 11 -4.98 11 -6 11 C-6 10.01 -6 9.02 -6 8 C-5.01 8 -4.02 8 -3 8 C-3 7.01 -3 6.02 -3 5 C-2.01 5 -1.02 5 0 5 C0 3.35 0 1.7 0 0 Z " fill="#ED2F24" transform="translate(422,96)"/>
<path d="M0 0 C0.66 0.165 0.66 0.165 4 1 C3.67 1.495 3.67 1.495 2 4 C3.485 3.835 3.485 3.835 11 3 C11.33 2.34 11.66 1.68 12 1 C12.66 1.33 13.32 1.66 14 2 C13.67 2.495 13.67 2.495 12 5 C9.855 5.165 9.855 5.165 -1 6 C-1 4.35 -1 2.7 -1 1 C-0.67 0.67 -0.34 0.34 0 0 Z " fill="#ED2F24" transform="translate(81,92)"/>
<path d="M0 0 C0.33 0.99 0.66 1.98 1 3 C2.98 2.835 2.98 2.835 13 2 C12.67 2.99 12.34 3.98 12 5 C9.855 5.165 9.855 5.165 -1 6 C-1 4.35 -1 2.7 -1 1 C-0.67 0.67 -0.34 0.34 0 0 Z " fill="#ED2F24" transform="translate(249,87)"/>
<path d="M0 0 C3.63 0 7.26 0 11 0 C11 0.99 11 1.98 11 3 C6.71 3 2.42 3 -2 3 C-1.34 2.01 -0.68 1.02 0 0 Z " fill="#ED2F24" transform="translate(297,61)"/>
<path d="M0 0 C0.33 0 0.66 0 1 0 C0.988 0.58 0.977 1.16 0.965 1.758 C0.912 6.315 1.084 10.534 2 15 C1.34 15 0.68 15 0 15 C-0.33 13.68 -0.66 12.36 -1 11 C-1.66 11 -2.32 11 -3 11 C-3 9.02 -3 7.04 -3 5 C-2.01 4.67 -1.02 4.34 0 4 C0 2.68 0 1.36 0 0 Z " fill="#ED2F24" transform="translate(441,100)"/>
<path d="M0 0 C0.66 0 1.32 0 2 0 C2.33 4.95 2.66 9.9 3 15 C2.01 15 1.02 15 0 15 C0 10.05 0 5.1 0 0 Z " fill="#ED2F24" transform="translate(467,92)"/>
<path d="M0 0 C1.65 0 3.3 0 5 0 C4.67 1.65 4.34 3.3 4 5 C3.01 5 2.02 5 1 5 C1 5.66 1 6.32 1 7 C0.01 7 -0.98 7 -2 7 C-2 6.01 -2 5.02 -2 4 C-1.34 4 -0.68 4 0 4 C0 2.68 0 1.36 0 0 Z " fill="#ED2F24" transform="translate(410,86)"/>
<path d="M0 0 C0.99 0 1.98 0 3 0 C2.635 2.189 2.362 3.619 0.812 5.25 C-1.857 6.354 -4.123 6.128 -7 6 C-7 5.01 -7 4.02 -7 3 C-5.02 2.67 -3.04 2.34 -1 2 C-0.67 1.34 -0.34 0.68 0 0 Z " fill="#ED2F24" transform="translate(274,82)"/>
<path d="M0 0 C0 2.915 -0.336 4.117 -1.5 6.688 C-1.778 7.31 -2.057 7.933 -2.344 8.574 C-2.56 9.045 -2.777 9.515 -3 10 C-4.98 10 -6.96 10 -9 10 C-9 9.34 -9 8.68 -9 8 C-7.68 7.67 -6.36 7.34 -5 7 C-4.866 6.608 -4.866 6.608 -4.188 4.625 C-3.015 2.033 -2.47 1.235 0 0 Z " fill="#ED2F24" transform="translate(285,69)"/>
<path d="M0 0 C0.99 0 1.98 0 3 0 C2.67 4.62 2.34 9.24 2 14 C1.34 14 0.68 14 0 14 C0 9.38 0 4.76 0 0 Z " fill="#ED2F24" transform="translate(200,67)"/>
<path d="M0 0 C2.97 0 5.94 0 9 0 C9.33 0.66 9.66 1.32 10 2 C7.36 2.33 4.72 2.66 2 3 C1.67 3.66 1.34 4.32 1 5 C-0.98 5.33 -2.96 5.66 -5 6 C-5 5.34 -5 4.68 -5 4 C-3.35 4 -1.7 4 0 4 C0 2.68 0 1.36 0 0 Z " fill="#ED2F24" transform="translate(164,73)"/>
<path d="M0 0 C2.31 0 4.62 0 7 0 C4.684 1.765 4.087 2 1 2 C1 2.99 1 3.98 1 5 C1.66 5.33 2.32 5.66 3 6 C2.01 6.66 1.02 7.32 0 8 C-0.99 7.34 -1.98 6.68 -3 6 C-2.01 4.02 -1.02 2.04 0 0 Z " fill="#ED2F24" transform="translate(262,24)"/>
<path d="M0 0 C1.32 0.33 2.64 0.66 4 1 C3.75 2.375 3.75 2.375 3 4 C0.276 5.785 -1.77 6.231 -5 6 C-4.67 5.01 -4.34 4.02 -4 3 C-3.526 2.876 -3.051 2.752 -2.562 2.625 C-2.047 2.419 -1.531 2.213 -1 2 C-0.67 1.34 -0.34 0.68 0 0 Z " fill="#ED2F24" transform="translate(124,79)"/>
<path d="M0 0 C0.66 0 1.32 0 2 0 C2 3.96 2 7.92 2 12 C1.01 12 0.02 12 -1 12 C-0.67 8.04 -0.34 4.08 0 0 Z " fill="#ED2F24" transform="translate(125,95)"/>
<path d="M0 0 C2.97 0.33 5.94 0.66 9 1 C9 1.33 9 1.66 9 2 C4.333 3.333 -0.333 4.667 -5 6 C-5 5.34 -5 4.68 -5 4 C-3.35 4 -1.7 4 0 4 C0 2.68 0 1.36 0 0 Z " fill="#ED2F24" transform="translate(323,94)"/>
<path d="M0 0 C0.66 0.33 1.32 0.66 2 1 C1.01 2.32 0.02 3.64 -1 5 C-2.65 5 -4.3 5 -6 5 C-6 5.66 -6 6.32 -6 7 C-7.32 6.67 -8.64 6.34 -10 6 C-7.74 3.237 -5.632 2.373 -2.305 1.43 C-1 1 -1 1 0 0 Z " fill="#ED2F24" transform="translate(398,75)"/>
<path d="M0 0 C0.33 0.66 0.66 1.32 1 2 C3.062 2.625 3.062 2.625 5 3 C4.67 3.99 4.34 4.98 4 6 C4.99 6 5.98 6 7 6 C7 6.99 7 7.98 7 9 C8.65 9 10.3 9 12 9 C11.67 9.66 11.34 10.32 11 11 C9.35 10.67 7.7 10.34 6 10 C6 9.01 6 8.02 6 7 C5.01 7 4.02 7 3 7 C0 3.375 0 3.375 0 0 Z " fill="#ED2F24" transform="translate(393,101)"/>
<path d="M0 0 C2.31 0.33 4.62 0.66 7 1 C7.33 1.66 7.66 2.32 8 3 C6.02 3.33 4.04 3.66 2 4 C1.67 4.66 1.34 5.32 1 6 C-0.98 6.33 -2.96 6.66 -5 7 C-5 6.34 -5 5.68 -5 5 C-3.35 5 -1.7 5 0 5 C0 3.35 0 1.7 0 0 Z " fill="#ED2F24" transform="translate(383,96)"/>
<path d="M0 0 C0.99 0 1.98 0 3 0 C2.427 2.867 2.139 3.861 0 6 C-1.65 5.67 -3.3 5.34 -5 5 C-5 4.34 -5 3.68 -5 3 C-3.35 3 -1.7 3 0 3 C0 2.01 0 1.02 0 0 Z " fill="#ED2F24" transform="translate(269,95)"/>
<path d="M0 0 C3.63 0.33 7.26 0.66 11 1 C11 1.66 11 2.32 11 3 C7.37 3 3.74 3 0 3 C0 2.01 0 1.02 0 0 Z " fill="#ED2F24" transform="translate(301,91)"/>
<path d="M0 0 C0.99 0 1.98 0 3 0 C2.427 2.867 2.139 3.861 0 6 C-1.65 5.67 -3.3 5.34 -5 5 C-5 4.34 -5 3.68 -5 3 C-3.35 3 -1.7 3 0 3 C0 2.01 0 1.02 0 0 Z " fill="#ED2F24" transform="translate(92,83)"/>
<path d="M0 0 C1.32 0 2.64 0 4 0 C4 0.99 4 1.98 4 3 C3.34 3 2.68 3 2 3 C2 3.99 2 4.98 2 6 C0.35 6 -1.3 6 -3 6 C-3 5.34 -3 4.68 -3 4 C-2.34 3.67 -1.68 3.34 -1 3 C-0.375 1.438 -0.375 1.438 0 0 Z " fill="#ED2F24" transform="translate(309,64)"/>
<path d="M0 0 C0.33 0.66 0.66 1.32 1 2 C-2.07 4.825 -4.394 5.339 -8.383 5.75 C-10.313 6.048 -11.538 6.71 -13 8 C-12.34 6.68 -11.68 5.36 -11 4 C-8.69 4 -6.38 4 -4 4 C-4 3.01 -4 2.02 -4 1 C-2.68 0.67 -1.36 0.34 0 0 Z " fill="#ED2F24" transform="translate(104,103)"/>
<path d="M0 0 C0.33 0.99 0.66 1.98 1 3 C-0.32 3.33 -1.64 3.66 -3 4 C-3.33 4.99 -3.66 5.98 -4 7 C-6.97 6.67 -9.94 6.34 -13 6 C-13 5.67 -13 5.34 -13 5 C-10.36 4.67 -7.72 4.34 -5 4 C-4.67 3.34 -4.34 2.68 -4 2 C-2.68 2 -1.36 2 0 2 C0 1.34 0 0.68 0 0 Z " fill="#ED2F24" transform="translate(111,85)"/>
<path d="M0 0 C0 0.99 0 1.98 0 3 C-0.227 3.052 -0.227 3.052 -1.375 3.312 C-3.379 4.16 -3.947 5.138 -5 7 C-5.99 6.835 -5.99 6.835 -11 6 C-10.381 5.711 -9.763 5.422 -9.125 5.125 C-7 4 -7 4 -5 2 C-3.35 1.293 -1.684 0.621 0 0 Z " fill="#ED2F24" transform="translate(123,79)"/>
<path d="M0 0 C0.33 1.32 0.66 2.64 1 4 C1.99 4 2.98 4 4 4 C4 5.65 4 7.3 4 9 C3.34 9 2.68 9 2 9 C2 8.01 2 7.02 2 6 C0.68 6.33 -0.64 6.66 -2 7 C-1.34 4.69 -0.68 2.38 0 0 Z " fill="#ED2F24" transform="translate(461,55)"/>
<path d="M0 0 C0.66 0 1.32 0 2 0 C2.33 1.65 2.66 3.3 3 5 C2.01 5.99 1.02 6.98 0 8 C-0.99 7.67 -1.98 7.34 -3 7 C-2.67 6.34 -2.34 5.68 -2 5 C-1.34 5 -0.68 5 0 5 C0 3.35 0 1.7 0 0 Z " fill="#ED2F24" transform="translate(134,102)"/>
<path d="M0 0 C0 0.99 0 1.98 0 3 C-1.32 3 -2.64 3 -4 3 C-4.33 4.32 -4.66 5.64 -5 7 C-7.31 6.67 -9.62 6.34 -12 6 C-12 5.67 -12 5.34 -12 5 C-10.02 5 -8.04 5 -6 5 C-5.938 4.546 -5.876 4.093 -5.812 3.625 C-5 2 -5 2 -2.438 0.812 C-1.633 0.544 -0.829 0.276 0 0 Z " fill="#ED2F24" transform="translate(381,85)"/>
<path d="M0 0 C0.99 0.33 1.98 0.66 3 1 C3 3.31 3 5.62 3 8 C2.01 8 1.02 8 0 8 C0 5.36 0 2.72 0 0 Z " fill="#ED2F24" transform="translate(362,81)"/>
<path d="M0 0 C0.66 0 1.32 0 2 0 C2 1.32 2 2.64 2 4 C2.99 4 3.98 4 5 4 C5 4.99 5 5.98 5 7 C2.133 6.427 1.139 6.139 -1 4 C-0.67 2.68 -0.34 1.36 0 0 Z " fill="#ED2F24" transform="translate(449,73)"/>
<path d="M0 0 C1.32 0 2.64 0 4 0 C4 1.32 4 2.64 4 4 C1.684 5.765 1.087 6 -2 6 C-2 5.34 -2 4.68 -2 4 C-1.34 4 -0.68 4 0 4 C0 2.68 0 1.36 0 0 Z " fill="#ED2F24" transform="translate(314,67)"/>
<path d="M0 0 C1.98 0 3.96 0 6 0 C6 1.98 6 3.96 6 6 C3.378 4.951 2.206 4.351 0.75 1.875 C0.502 1.256 0.255 0.638 0 0 Z " fill="#ED2F24" transform="translate(64,107)"/>
<path d="M0 0 C0.99 0.33 1.98 0.66 3 1 C3 1.99 3 2.98 3 4 C2.34 4 1.68 4 1 4 C0.67 4.99 0.34 5.98 0 7 C-0.99 7 -1.98 7 -3 7 C-3 6.01 -3 5.02 -3 4 C-2.01 4 -1.02 4 0 4 C0 2.68 0 1.36 0 0 Z " fill="#ED2F24" transform="translate(212,94)"/>
<path d="M0 0 C1.32 0 2.64 0 4 0 C4 0.66 4 1.32 4 2 C3.67 2.165 3.67 2.165 2 3 C1.67 6.96 1.34 10.92 1 15 C0.67 15 0.34 15 0 15 C0 10.05 0 5.1 0 0 Z " fill="#ED2F24" transform="translate(56,90)"/>
<path d="M0 0 C1.98 0 3.96 0 6 0 C6.33 0.99 6.66 1.98 7 3 C4.36 3 1.72 3 -1 3 C-0.67 2.01 -0.34 1.02 0 0 Z " fill="#ED2F24" transform="translate(100,91)"/>
<path d="M0 0 C0.99 0.33 1.98 0.66 3 1 C3 1.99 3 2.98 3 4 C2.34 4 1.68 4 1 4 C0.67 4.99 0.34 5.98 0 7 C-0.99 7 -1.98 7 -3 7 C-3 6.01 -3 5.02 -3 4 C-2.01 4 -1.02 4 0 4 C0 2.68 0 1.36 0 0 Z " fill="#ED2F24" transform="translate(218,85)"/>
<path d="M0 0 C0 0.99 0 1.98 0 3 C-0.99 3 -1.98 3 -3 3 C-3 3.99 -3 4.98 -3 6 C-3.99 6 -4.98 6 -6 6 C-6 4.68 -6 3.36 -6 2 C-3.684 0.235 -3.087 0 0 0 Z " fill="#ED2F24" transform="translate(454,88)"/>
<path d="M0 0 C1.519 -0.072 3.042 -0.084 4.562 -0.062 C5.389 -0.053 6.215 -0.044 7.066 -0.035 C7.704 -0.024 8.343 -0.012 9 0 C9 0.33 9 0.66 9 1 C6.69 1 4.38 1 2 1 C1.67 1.99 1.34 2.98 1 4 C0.01 3.835 0.01 3.835 -5 3 C-4.361 2.691 -3.721 2.381 -3.062 2.062 C-1 1 -1 1 0 0 Z " fill="#ED2F24" transform="translate(318,85)"/>
<path d="M0 0 C4.449 -0.361 4.449 -0.361 6.812 1.188 C8.367 3.56 8.225 5.22 8 8 C7.67 7.01 7.34 6.02 7 5 C6.34 5 5.68 5 5 5 C4.67 5.99 4.34 6.98 4 8 C4 6.02 4 4.04 4 2 C2.68 1.34 1.36 0.68 0 0 Z " fill="#ED2F24" transform="translate(487,69)"/>
<path d="M0 0 C0.825 0.165 0.825 0.165 5 1 C5 2.65 5 4.3 5 6 C4.01 6.33 3.02 6.66 2 7 C1.34 4.69 0.68 2.38 0 0 Z " fill="#ED2F24" transform="translate(174,68)"/>
<path d="M0 0 C1.32 0.33 2.64 0.66 4 1 C4 2.65 4 4.3 4 6 C2.68 6.33 1.36 6.66 0 7 C0 4.69 0 2.38 0 0 Z " fill="#ED2F24" transform="translate(451,81)"/>
<path d="M0 0 C0 3.106 -0.539 4.353 -2 7 C-3.98 7.33 -5.96 7.66 -8 8 C-8 7.34 -8 6.68 -8 6 C-6.35 6 -4.7 6 -3 6 C-3 4.35 -3 2.7 -3 1 C-2.01 0.67 -1.02 0.34 0 0 Z " fill="#ED2F24" transform="translate(104,77)"/>
<path d="M0 0 C-0.33 0.99 -0.66 1.98 -1 3 C-1.66 3 -2.32 3 -3 3 C-3 3.99 -3 4.98 -3 6 C-3.99 6 -4.98 6 -6 6 C-6 4.68 -6 3.36 -6 2 C-3.684 0.235 -3.087 0 0 0 Z " fill="#ED2F24" transform="translate(136,73)"/>
<path d="M0 0 C1.65 0 3.3 0 5 0 C5 0.99 5 1.98 5 3 C3.68 3 2.36 3 1 3 C1 3.99 1 4.98 1 6 C0.01 5.67 -0.98 5.34 -2 5 C-1.34 3.35 -0.68 1.7 0 0 Z " fill="#ED2F24" transform="translate(246,61)"/>
<path d="M0 0 C0.99 0 1.98 0 3 0 C2.333 3.333 1.667 6.667 1 10 C0.67 10 0.34 10 0 10 C-0.76 6.283 -1.271 3.671 0 0 Z " fill="#ED2F24" transform="translate(445,95)"/>
<path d="M0 0 C0.33 0 0.66 0 1 0 C1 2.31 1 4.62 1 7 C0.67 7.165 0.67 7.165 -1 8 C-1.33 9.65 -1.66 11.3 -2 13 C-3.461 10.353 -4 9.106 -4 6 C-2.68 6 -1.36 6 0 6 C0 4.02 0 2.04 0 0 Z " fill="#ED2F24" transform="translate(389,29)"/>
<path d="M0 0 C0.66 0 1.32 0 2 0 C2.33 2.64 2.66 5.28 3 8 C2.01 8 1.02 8 0 8 C0 5.36 0 2.72 0 0 Z " fill="#ED2F24" transform="translate(53,96)"/>
<path d="M0 0 C2.64 0 5.28 0 8 0 C8 0.99 8 1.98 8 3 C5.36 2.67 2.72 2.34 0 2 C0 1.34 0 0.68 0 0 Z " fill="#ED2F24" transform="translate(324,92)"/>
<path d="M0 0 C0.66 0 1.32 0 2 0 C2.33 2.64 2.66 5.28 3 8 C2.01 8 1.02 8 0 8 C0 5.36 0 2.72 0 0 Z " fill="#ED2F24" transform="translate(248,78)"/>
<path d="M0 0 C2.64 0.33 5.28 0.66 8 1 C8 1.66 8 2.32 8 3 C5.36 3 2.72 3 0 3 C0 2.01 0 1.02 0 0 Z " fill="#ED2F24" transform="translate(478,73)"/>
<path d="M0 0 C0.99 0 1.98 0 3 0 C3 2.64 3 5.28 3 8 C2.34 8 1.68 8 1 8 C0.67 5.36 0.34 2.72 0 0 Z " fill="#ED2F24" transform="translate(190,70)"/>
<path d="M0 0 C-1.293 2.884 -2.659 4.872 -5 7 C-5.66 6.67 -6.32 6.34 -7 6 C-3.615 0 -3.615 0 0 0 Z " fill="#ED2F24" transform="translate(291,66)"/>
<path d="M0 0 C2.64 0.33 5.28 0.66 8 1 C8 1.66 8 2.32 8 3 C5.36 3 2.72 3 0 3 C0 2.01 0 1.02 0 0 Z " fill="#ED2F24" transform="translate(418,58)"/>
<path d="M0 0 C0.33 0.99 0.66 1.98 1 3 C0.01 3 -0.98 3 -2 3 C-2 3.99 -2 4.98 -2 6 C-2.99 6 -3.98 6 -5 6 C-5 4.68 -5 3.36 -5 2 C-3.35 1.34 -1.7 0.68 0 0 Z " fill="#ED2F24" transform="translate(354,73)"/>
<path d="M0 0 C3 3.625 3 3.625 3 7 C1.35 6.67 -0.3 6.34 -2 6 C-1.34 4.02 -0.68 2.04 0 0 Z " fill="#ED2F24" transform="translate(135,67)"/>
<path d="M0 0 C0.33 0.99 0.66 1.98 1 3 C-1.31 3.33 -3.62 3.66 -6 4 C-6 3.01 -6 2.02 -6 1 C-3.761 0.147 -2.508 0 0 0 Z " fill="#ED2F24" transform="translate(269,25)"/>
<path d="M0 0 C0.66 0 1.32 0 2 0 C1.67 1.65 1.34 3.3 1 5 C-0.65 5 -2.3 5 -4 5 C-4 4.34 -4 3.68 -4 3 C-2.68 3 -1.36 3 0 3 C0 2.01 0 1.02 0 0 Z " fill="#ED2F24" transform="translate(492,74)"/>
<path d="M0 0 C2.31 0.33 4.62 0.66 7 1 C6.67 1.66 6.34 2.32 6 3 C4.02 3 2.04 3 0 3 C0 2.01 0 1.02 0 0 Z " fill="#ED2F24" transform="translate(55,76)"/>
<path d="M0 0 C1.5 1.375 1.5 1.375 3 3 C3 3.66 3 4.32 3 5 C2.01 5.33 1.02 5.66 0 6 C-0.99 5.34 -1.98 4.68 -3 4 C-2.01 2.68 -1.02 1.36 0 0 Z " fill="#ED2F24" transform="translate(193,65)"/>
<path d="M0 0 C1.32 0 2.64 0 4 0 C4.33 0.99 4.66 1.98 5 3 C3.02 3.66 1.04 4.32 -1 5 C-0.67 3.35 -0.34 1.7 0 0 Z " fill="#ED2F24" transform="translate(363,61)"/>
<path d="M0 0 C1.65 0 3.3 0 5 0 C5 1.98 5 3.96 5 6 C4.164 5.191 3.331 4.377 2.5 3.562 C2.036 3.11 1.572 2.658 1.094 2.191 C0.733 1.798 0.372 1.405 0 1 C0 0.67 0 0.34 0 0 Z " fill="#ED2F24" transform="translate(442,113)"/>
<path d="M0 0 C0.99 0.165 0.99 0.165 6 1 C6 1.66 6 2.32 6 3 C4.02 3 2.04 3 0 3 C0 2.01 0 1.02 0 0 Z " fill="#ED2F24" transform="translate(370,91)"/>
<path d="M0 0 C0.99 0.165 0.99 0.165 6 1 C5.67 1.66 5.34 2.32 5 3 C3.02 3 1.04 3 -1 3 C-0.67 2.01 -0.34 1.02 0 0 Z " fill="#ED2F24" transform="translate(65,73)"/>
<path d="M0 0 C-0.33 1.32 -0.66 2.64 -1 4 C-2.32 4 -3.64 4 -5 4 C-4.625 2.562 -4.625 2.562 -4 1 C-2 0 -2 0 0 0 Z " fill="#ED2F24" transform="translate(463,61)"/>
<path d="M0 0 C2.31 0 4.62 0 7 0 C4.323 2.677 2.688 2.519 -1 3 C-0.67 2.01 -0.34 1.02 0 0 Z " fill="#ED2F24" transform="translate(379,24)"/>
<path d="M0 0 C1.65 0 3.3 0 5 0 C5 0.99 5 1.98 5 3 C4.01 2.835 4.01 2.835 -1 2 C-0.67 1.34 -0.34 0.68 0 0 Z " fill="#ED2F24" transform="translate(312,98)"/>
<path d="M0 0 C0.99 0.165 0.99 0.165 6 1 C5.67 1.66 5.34 2.32 5 3 C3.35 3 1.7 3 0 3 C0 2.01 0 1.02 0 0 Z " fill="#ED2F24" transform="translate(331,82)"/>
<path d="M0 0 C0.825 0.165 0.825 0.165 5 1 C5 1.66 5 2.32 5 3 C3.35 3 1.7 3 0 3 C0 2.01 0 1.02 0 0 Z " fill="#ED2F24" transform="translate(487,70)"/>
<path d="M0 0 C0.99 0.33 1.98 0.66 3 1 C3 2.32 3 3.64 3 5 C2.01 5 1.02 5 0 5 C0 3.35 0 1.7 0 0 Z " fill="#ED2F24" transform="translate(386,30)"/>
<path d="M0 0 C1.65 0 3.3 0 5 0 C5 0.99 5 1.98 5 3 C3.35 2.67 1.7 2.34 0 2 C0 1.34 0 0.68 0 0 Z " fill="#ED2F24" transform="translate(372,101)"/>
<path d="M0 0 C1.65 0 3.3 0 5 0 C5 0.99 5 1.98 5 3 C3.35 2.67 1.7 2.34 0 2 C0 1.34 0 0.68 0 0 Z " fill="#ED2F24" transform="translate(378,98)"/>
<path d="M0 0 C1.65 0 3.3 0 5 0 C5 0.99 5 1.98 5 3 C3.35 2.67 1.7 2.34 0 2 C0 1.34 0 0.68 0 0 Z " fill="#ED2F24" transform="translate(105,98)"/>
<path d="M0 0 C0.825 0.165 0.825 0.165 5 1 C5 1.66 5 2.32 5 3 C3.35 3 1.7 3 0 3 C0 2.01 0 1.02 0 0 Z " fill="#ED2F24" transform="translate(313,88)"/>
<path d="M0 0 C0.825 0.165 0.825 0.165 5 1 C5 1.66 5 2.32 5 3 C3.35 3 1.7 3 0 3 C0 2.01 0 1.02 0 0 Z " fill="#ED2F24" transform="translate(112,85)"/>
<path d="M0 0 C0.99 0.33 1.98 0.66 3 1 C3 1.99 3 2.98 3 4 C1.68 3.67 0.36 3.34 -1 3 C-0.67 2.01 -0.34 1.02 0 0 Z " fill="#ED2F24" transform="translate(98,79)"/>
<path d="M0 0 C1.65 0 3.3 0 5 0 C5 0.99 5 1.98 5 3 C3.35 2.67 1.7 2.34 0 2 C0 1.34 0 0.68 0 0 Z " fill="#ED2F24" transform="translate(159,74)"/>
<path d="M0 0 C1.65 0 3.3 0 5 0 C5 0.66 5 1.32 5 2 C3.35 2.66 1.7 3.32 0 4 C0 2.68 0 1.36 0 0 Z " fill="#ED2F24" transform="translate(305,70)"/>
<path d="M0 0 C0.825 0.165 0.825 0.165 5 1 C5 1.66 5 2.32 5 3 C3.35 3 1.7 3 0 3 C0 2.01 0 1.02 0 0 Z " fill="#ED2F24" transform="translate(154,64)"/>
<path d="M0 0 C1.32 0.33 2.64 0.66 4 1 C3.67 1.99 3.34 2.98 3 4 C2.01 3.67 1.02 3.34 0 3 C0 2.01 0 1.02 0 0 Z " fill="#ED2F24" transform="translate(139,61)"/>
<path d="M0 0 C1.32 0.33 2.64 0.66 4 1 C3.67 1.99 3.34 2.98 3 4 C2.01 3.67 1.02 3.34 0 3 C0 2.01 0 1.02 0 0 Z " fill="#ED2F24" transform="translate(220,55)"/>
<path d="M0 0 C1.32 0 2.64 0 4 0 C4 0.99 4 1.98 4 3 C2.68 3 1.36 3 0 3 C0 2.01 0 1.02 0 0 Z " fill="#ED2F24" transform="translate(451,119)"/>
<path d="M0 0 C0.33 0.99 0.66 1.98 1 3 C1.66 3 2.32 3 3 3 C3 3.66 3 4.32 3 5 C1.68 4.67 0.36 4.34 -1 4 C-0.67 2.68 -0.34 1.36 0 0 Z " fill="#ED2F24" transform="translate(447,113)"/>
<path d="M0 0 C0.495 0.33 0.495 0.33 3 2 C3 2.99 3 3.98 3 5 C2.01 5 1.02 5 0 5 C0 3.35 0 1.7 0 0 Z " fill="#ED2F24" transform="translate(227,66)"/>
<path d="M0 0 C0.99 0 1.98 0 3 0 C3 1.65 3 3.3 3 5 C2.01 4.34 1.02 3.68 0 3 C0 2.01 0 1.02 0 0 Z " fill="#ED2F24" transform="translate(217,61)"/>
<path d="M0 0 C1.32 0 2.64 0 4 0 C4 0.99 4 1.98 4 3 C2.68 3 1.36 3 0 3 C0 2.01 0 1.02 0 0 Z " fill="#ED2F24" transform="translate(91,61)"/>
<path d="M0 0 C1.32 0 2.64 0 4 0 C4 0.99 4 1.98 4 3 C2.68 2.67 1.36 2.34 0 2 C0 1.34 0 0.68 0 0 Z " fill="#ED2F24" transform="translate(457,116)"/>
<path d="M0 0 C1.32 0 2.64 0 4 0 C3.67 0.99 3.34 1.98 3 3 C2.01 3 1.02 3 0 3 C0 2.01 0 1.02 0 0 Z " fill="#ED2F24" transform="translate(31,116)"/>
<path d="M0 0 C1.32 0 2.64 0 4 0 C3.67 0.99 3.34 1.98 3 3 C2.01 3 1.02 3 0 3 C0 2.01 0 1.02 0 0 Z " fill="#ED2F24" transform="translate(400,107)"/>
<path d="M0 0 C1.32 0 2.64 0 4 0 C4 0.99 4 1.98 4 3 C2.68 2.67 1.36 2.34 0 2 C0 1.34 0 0.68 0 0 Z " fill="#ED2F24" transform="translate(199,107)"/>
<path d="M0 0 C1.32 0 2.64 0 4 0 C3.67 0.99 3.34 1.98 3 3 C2.01 3 1.02 3 0 3 C0 2.01 0 1.02 0 0 Z " fill="#ED2F24" transform="translate(193,107)"/>
<path d="M0 0 C0.66 0 1.32 0 2 0 C2 1.32 2 2.64 2 4 C1.01 4 0.02 4 -1 4 C-0.67 2.68 -0.34 1.36 0 0 Z " fill="#ED2F24" transform="translate(191,103)"/>
<path d="M0 0 C0.66 0 1.32 0 2 0 C2 1.32 2 2.64 2 4 C1.01 4 0.02 4 -1 4 C-0.67 2.68 -0.34 1.36 0 0 Z " fill="#ED2F24" transform="translate(65,103)"/>
<path d="M0 0 C0.99 0 1.98 0 3 0 C3 1.32 3 2.64 3 4 C2.01 3.67 1.02 3.34 0 3 C0 2.01 0 1.02 0 0 Z " fill="#ED2F24" transform="translate(28,97)"/>
<path d="M0 0 C1.32 0 2.64 0 4 0 C4 0.99 4 1.98 4 3 C2.68 2.67 1.36 2.34 0 2 C0 1.34 0 0.68 0 0 Z " fill="#ED2F24" transform="translate(319,95)"/>
<path d="M0 0 C0.99 0.33 1.98 0.66 3 1 C3 1.99 3 2.98 3 4 C2.01 4 1.02 4 0 4 C0 2.68 0 1.36 0 0 Z " fill="#ED2F24" transform="translate(212,94)"/>
<path d="M0 0 C0.99 0.33 1.98 0.66 3 1 C3 1.99 3 2.98 3 4 C2.01 4 1.02 4 0 4 C0 2.68 0 1.36 0 0 Z " fill="#ED2F24" transform="translate(425,91)"/>
<path d="M0 0 C0.825 0.165 0.825 0.165 5 1 C3.68 1.99 2.36 2.98 1 4 C0.67 2.68 0.34 1.36 0 0 Z " fill="#ED2F24" transform="translate(332,91)"/>
<path d="M0 0 C1.32 0.33 2.64 0.66 4 1 C4 1.66 4 2.32 4 3 C2.68 3 1.36 3 0 3 C0 2.01 0 1.02 0 0 Z " fill="#ED2F24" transform="translate(382,85)"/>
<path d="M0 0 C0.99 0.33 1.98 0.66 3 1 C2.67 1.495 2.67 1.495 1 4 C0.01 3.34 -0.98 2.68 -2 2 C-1.34 1.34 -0.68 0.68 0 0 Z " fill="#ED2F24" transform="translate(276,79)"/>
<path d="M0 0 C0.99 0.33 1.98 0.66 3 1 C3 1.99 3 2.98 3 4 C2.01 4 1.02 4 0 4 C0 2.68 0 1.36 0 0 Z " fill="#ED2F24" transform="translate(221,79)"/>
<path d="M0 0 C1.32 0.33 2.64 0.66 4 1 C4 1.66 4 2.32 4 3 C2.68 3 1.36 3 0 3 C0 2.01 0 1.02 0 0 Z " fill="#ED2F24" transform="translate(124,79)"/>
<path d="M0 0 C0.99 0 1.98 0 3 0 C3 1.32 3 2.64 3 4 C2.01 3.67 1.02 3.34 0 3 C0 2.01 0 1.02 0 0 Z " fill="#ED2F24" transform="translate(238,76)"/>
<path d="M0 0 C0.66 0 1.32 0 2 0 C2 1.32 2 2.64 2 4 C1.01 4 0.02 4 -1 4 C-0.67 2.68 -0.34 1.36 0 0 Z " fill="#ED2F24" transform="translate(449,73)"/>
<path d="M0 0 C0.99 0.33 1.98 0.66 3 1 C3 1.99 3 2.98 3 4 C2.01 4 1.02 4 0 4 C0 2.68 0 1.36 0 0 Z " fill="#ED2F24" transform="translate(224,73)"/>
<path d="M0 0 C0.66 0.33 1.32 0.66 2 1 C1.34 2.32 0.68 3.64 0 5 C-0.99 4.67 -1.98 4.34 -3 4 C-2.01 2.68 -1.02 1.36 0 0 Z " fill="#ED2F24" transform="translate(403,70)"/>
<path d="M0 0 C0.99 0 1.98 0 3 0 C3 1.32 3 2.64 3 4 C2.01 3.67 1.02 3.34 0 3 C0 2.01 0 1.02 0 0 Z " fill="#ED2F24" transform="translate(283,73)"/>
<path d="M0 0 C0.99 0 1.98 0 3 0 C3 1.32 3 2.64 3 4 C2.01 3.67 1.02 3.34 0 3 C0 2.01 0 1.02 0 0 Z " fill="#ED2F24" transform="translate(211,73)"/>
<path d="M0 0 C1.32 0 2.64 0 4 0 C4 0.99 4 1.98 4 3 C2.68 2.67 1.36 2.34 0 2 C0 1.34 0 0.68 0 0 Z " fill="#ED2F24" transform="translate(301,71)"/>
<path d="M0 0 C1.32 0.33 2.64 0.66 4 1 C4 1.66 4 2.32 4 3 C2.68 3 1.36 3 0 3 C0 2.01 0 1.02 0 0 Z " fill="#ED2F24" transform="translate(79,67)"/>
<path d="M0 0 C0.99 0 1.98 0 3 0 C3 1.32 3 2.64 3 4 C2.01 3.67 1.02 3.34 0 3 C0 2.01 0 1.02 0 0 Z " fill="#ED2F24" transform="translate(214,67)"/>
<path d="M0 0 C0.99 0 1.98 0 3 0 C3 1.32 3 2.64 3 4 C2.01 3.67 1.02 3.34 0 3 C0 2.01 0 1.02 0 0 Z " fill="#ED2F24" transform="translate(136,67)"/>
<path d="M0 0 C0.33 0.66 0.66 1.32 1 2 C0.67 2.495 0.67 2.495 -1 5 C-1.99 4.67 -2.98 4.34 -4 4 C-2.68 2.68 -1.36 1.36 0 0 Z " fill="#ED2F24" transform="translate(362,62)"/>
<path d="M0 0 C0.99 0 1.98 0 3 0 C3 0.99 3 1.98 3 3 C1.68 3 0.36 3 -1 3 C-0.67 2.01 -0.34 1.02 0 0 Z " fill="#ED2F24" transform="translate(98,64)"/>
<path d="M0 0 C1.32 0.33 2.64 0.66 4 1 C4 1.66 4 2.32 4 3 C2.68 3 1.36 3 0 3 C0 2.01 0 1.02 0 0 Z " fill="#ED2F24" transform="translate(85,64)"/>
<path d="M0 0 C0.99 0.33 1.98 0.66 3 1 C3 1.99 3 2.98 3 4 C2.01 4 1.02 4 0 4 C0 2.68 0 1.36 0 0 Z " fill="#ED2F24" transform="translate(230,61)"/>
<path d="M0 0 C1.32 0.33 2.64 0.66 4 1 C3.01 1.99 2.02 2.98 1 4 C0.67 2.68 0.34 1.36 0 0 Z " fill="#ED2F24" transform="translate(31,55)"/>
<path d="M0 0 C0.99 0 1.98 0 3 0 C2.67 1.32 2.34 2.64 2 4 C1.34 4 0.68 4 0 4 C0 2.68 0 1.36 0 0 Z " fill="#ED2F24" transform="translate(227,55)"/>
<path d="M0 0 C0.66 0.33 1.32 0.66 2 1 C2 1.99 2 2.98 2 4 C1.01 4 0.02 4 -1 4 C-0.67 2.68 -0.34 1.36 0 0 Z " fill="#ED2F24" transform="translate(443,109)"/>
<path d="M0 0 C0.66 1.32 1.32 2.64 2 4 C1.34 4.33 1.34 4.33 -2 6 C-1.34 4.02 -0.68 2.04 0 0 Z " fill="#ED2F24" transform="translate(27,99)"/>
<path d="M0 0 C1.32 0 2.64 0 4 0 C4 0.99 4 1.98 4 3 C2.68 2.67 1.36 2.34 0 2 C0 1.34 0 0.68 0 0 Z " fill="#ED2F24" transform="translate(264,98)"/>
<path d="M0 0 C1.32 0 2.64 0 4 0 C4 0.99 4 1.98 4 3 C2.68 2.67 1.36 2.34 0 2 C0 1.34 0 0.68 0 0 Z " fill="#ED2F24" transform="translate(87,86)"/>
<path d="M0 0 C0.66 0 1.32 0 2 0 C2 1.32 2 2.64 2 4 C1.01 4 0.02 4 -1 4 C-0.67 2.68 -0.34 1.36 0 0 Z " fill="#ED2F24" transform="translate(38,79)"/>
<path d="M0 0 C1.32 0 2.64 0 4 0 C4 0.99 4 1.98 4 3 C3.01 3 2.02 3 1 3 C0.67 2.01 0.34 1.02 0 0 Z " fill="#ED2F24" transform="translate(223,55)"/>
<path d="M0 0 C0.99 0 1.98 0 3 0 C3 0.99 3 1.98 3 3 C2.01 3 1.02 3 0 3 C0 2.01 0 1.02 0 0 Z " fill="#ED2F24" transform="translate(28,113)"/>
<path d="M0 0 C0.99 0 1.98 0 3 0 C3 0.99 3 1.98 3 3 C2.01 3 1.02 3 0 3 C0 2.01 0 1.02 0 0 Z " fill="#ED2F24" transform="translate(416,104)"/>
<path d="M0 0 C0.99 0 1.98 0 3 0 C3 0.99 3 1.98 3 3 C2.01 3 1.02 3 0 3 C0 2.01 0 1.02 0 0 Z " fill="#ED2F24" transform="translate(397,104)"/>
<path d="M0 0 C0.99 0 1.98 0 3 0 C3 0.99 3 1.98 3 3 C2.01 3 1.02 3 0 3 C0 2.01 0 1.02 0 0 Z " fill="#ED2F24" transform="translate(101,101)"/>
<path d="M0 0 C0.99 0 1.98 0 3 0 C3 0.99 3 1.98 3 3 C2.01 3 1.02 3 0 3 C0 2.01 0 1.02 0 0 Z " fill="#ED2F24" transform="translate(286,98)"/>
<path d="M0 0 C0.99 0 1.98 0 3 0 C3 0.99 3 1.98 3 3 C2.01 3 1.02 3 0 3 C0 2.01 0 1.02 0 0 Z " fill="#ED2F24" transform="translate(137,98)"/>
<path d="M0 0 C0.99 0 1.98 0 3 0 C3 0.99 3 1.98 3 3 C2.01 3 1.02 3 0 3 C0 2.01 0 1.02 0 0 Z " fill="#ED2F24" transform="translate(61,97)"/>
<path d="M0 0 C0.99 0 1.98 0 3 0 C3 0.99 3 1.98 3 3 C2.01 3 1.02 3 0 3 C0 2.01 0 1.02 0 0 Z " fill="#ED2F24" transform="translate(283,95)"/>
<path d="M0 0 C0.99 0 1.98 0 3 0 C3 0.99 3 1.98 3 3 C2.01 3 1.02 3 0 3 C0 2.01 0 1.02 0 0 Z " fill="#ED2F24" transform="translate(94,94)"/>
<path d="M0 0 C0.66 0.33 1.32 0.66 2 1 C1.01 1.99 0.02 2.98 -1 4 C-1.66 3.34 -2.32 2.68 -3 2 C-2.01 1.34 -1.02 0.68 0 0 Z " fill="#ED2F24" transform="translate(98,91)"/>
<path d="M0 0 C0.99 0 1.98 0 3 0 C3 0.99 3 1.98 3 3 C2.01 3 1.02 3 0 3 C0 2.01 0 1.02 0 0 Z " fill="#ED2F24" transform="translate(448,91)"/>
<path d="M0 0 C0.99 0 1.98 0 3 0 C3 0.99 3 1.98 3 3 C2.01 3 1.02 3 0 3 C0 2.01 0 1.02 0 0 Z " fill="#ED2F24" transform="translate(262,88)"/>
<path d="M0 0 C0.99 0 1.98 0 3 0 C3 0.99 3 1.98 3 3 C2.01 3 1.02 3 0 3 C0 2.01 0 1.02 0 0 Z " fill="#ED2F24" transform="translate(473,86)"/>
<path d="M0 0 C0.99 0 1.98 0 3 0 C3 0.99 3 1.98 3 3 C2.01 3 1.02 3 0 3 C0 2.01 0 1.02 0 0 Z " fill="#ED2F24" transform="translate(388,82)"/>
<path d="M0 0 C0.99 0 1.98 0 3 0 C3 0.99 3 1.98 3 3 C2.01 3 1.02 3 0 3 C0 2.01 0 1.02 0 0 Z " fill="#ED2F24" transform="translate(274,82)"/>
<path d="M0 0 C0.99 0 1.98 0 3 0 C3 0.99 3 1.98 3 3 C2.01 3 1.02 3 0 3 C0 2.01 0 1.02 0 0 Z " fill="#ED2F24" transform="translate(293,80)"/>
<path d="M0 0 C0.99 0 1.98 0 3 0 C3 0.99 3 1.98 3 3 C2.01 3 1.02 3 0 3 C0 2.01 0 1.02 0 0 Z " fill="#ED2F24" transform="translate(208,79)"/>
<path d="M0 0 C0.99 0 1.98 0 3 0 C3 0.99 3 1.98 3 3 C2.01 3 1.02 3 0 3 C0 2.01 0 1.02 0 0 Z " fill="#ED2F24" transform="translate(130,76)"/>
<path d="M0 0 C0.99 0 1.98 0 3 0 C3 0.99 3 1.98 3 3 C2.01 3 1.02 3 0 3 C0 2.01 0 1.02 0 0 Z " fill="#ED2F24" transform="translate(101,74)"/>
<path d="M0 0 C0 0.99 0 1.98 0 3 C-0.99 3.33 -1.98 3.66 -3 4 C-2.625 2.562 -2.625 2.562 -2 1 C-1.34 0.67 -0.68 0.34 0 0 Z " fill="#ED2F24" transform="translate(354,71)"/>
<path d="M0 0 C0.99 0 1.98 0 3 0 C3 0.99 3 1.98 3 3 C2.01 3 1.02 3 0 3 C0 2.01 0 1.02 0 0 Z " fill="#ED2F24" transform="translate(355,70)"/>
<path d="M0 0 C0.99 0 1.98 0 3 0 C3 0.99 3 1.98 3 3 C2.01 3 1.02 3 0 3 C0 2.01 0 1.02 0 0 Z " fill="#ED2F24" transform="translate(146,64)"/>
<path d="M0 0 C0.99 0 1.98 0 3 0 C3 0.99 3 1.98 3 3 C2.01 3 1.02 3 0 3 C0 2.01 0 1.02 0 0 Z " fill="#ED2F24" transform="translate(376,44)"/>
<path d="M0 0 C0.99 0 1.98 0 3 0 C3 0.99 3 1.98 3 3 C2.01 2.67 1.02 2.34 0 2 C0 1.34 0 0.68 0 0 Z " fill="#ED2F24" transform="translate(43,116)"/>
<path d="M0 0 C0.99 0 1.98 0 3 0 C3 0.99 3 1.98 3 3 C2.01 2.67 1.02 2.34 0 2 C0 1.34 0 0.68 0 0 Z " fill="#ED2F24" transform="translate(406,110)"/>
<path d="M0 0 C0.99 0 1.98 0 3 0 C3 0.99 3 1.98 3 3 C2.01 2.67 1.02 2.34 0 2 C0 1.34 0 0.68 0 0 Z " fill="#ED2F24" transform="translate(112,95)"/>
<path d="M0 0 C0.99 0 1.98 0 3 0 C3 0.99 3 1.98 3 3 C2.01 2.67 1.02 2.34 0 2 C0 1.34 0 0.68 0 0 Z " fill="#ED2F24" transform="translate(334,89)"/>
<path d="M0 0 C0.99 0 1.98 0 3 0 C3 0.99 3 1.98 3 3 C2.01 2.67 1.02 2.34 0 2 C0 1.34 0 0.68 0 0 Z " fill="#ED2F24" transform="translate(61,89)"/>
<path d="M0 0 C0.495 0.33 0.495 0.33 3 2 C1.68 2.33 0.36 2.66 -1 3 C-0.67 2.01 -0.34 1.02 0 0 Z " fill="#ED2F24" transform="translate(279,79)"/>
<path d="M0 0 C0.66 0 1.32 0 2 0 C2 0.99 2 1.98 2 3 C1.01 3 0.02 3 -1 3 C-0.67 2.01 -0.34 1.02 0 0 Z " fill="#ED2F24" transform="translate(102,67)"/>
<path d="M0 0 C0.66 0 1.32 0 2 0 C2 0.99 2 1.98 2 3 C1.01 3 0.02 3 -1 3 C-0.67 2.01 -0.34 1.02 0 0 Z " fill="#ED2F24" transform="translate(249,61)"/>
<path d="M0 0 C0.66 0 1.32 0 2 0 C2 0.99 2 1.98 2 3 C1.01 3 0.02 3 -1 3 C-0.67 2.01 -0.34 1.02 0 0 Z " fill="#ED2F24" transform="translate(381,44)"/>
<path d="M0 0 C0.99 0.33 1.98 0.66 3 1 C3 1.66 3 2.32 3 3 C2.01 2.67 1.02 2.34 0 2 C0 1.34 0 0.68 0 0 Z " fill="#ED2F24" transform="translate(41,76)"/>
<path d="M0 0 C0.99 0.33 1.98 0.66 3 1 C3 1.66 3 2.32 3 3 C2.01 2.67 1.02 2.34 0 2 C0 1.34 0 0.68 0 0 Z " fill="#ED2F24" transform="translate(34,74)"/>
<path d="M0 0 C0.66 0 1.32 0 2 0 C1.67 0.99 1.34 1.98 1 3 C0.34 3 -0.32 3 -1 3 C-0.67 2.01 -0.34 1.02 0 0 Z " fill="#ED2F24" transform="translate(292,63)"/>
<path d="M0 0 C0.66 0 1.32 0 2 0 C1.67 0.99 1.34 1.98 1 3 C0.34 3 -0.32 3 -1 3 C-0.67 2.01 -0.34 1.02 0 0 Z " fill="#ED2F24" transform="translate(244,63)"/>
<path d="M0 0 C0.66 0 1.32 0 2 0 C1.67 0.99 1.34 1.98 1 3 C0.34 2.34 -0.32 1.68 -1 1 C-0.67 0.67 -0.34 0.34 0 0 Z " fill="#ED2F24" transform="translate(106,89)"/>
</svg>
