<svg xmlns="http://www.w3.org/2000/svg" width="1071" height="156" viewBox="0 0 1071 156">
<path d="M0 0 C13.86 0 27.72 0 42 0 C42.66 1.98 43.32 3.96 44 6 C44.165 6.165 44.165 6.165 45 7 C45.114 8.399 45.114 8.399 45.098 10.16 C45.094 10.789 45.091 11.417 45.088 12.064 C45.084 12.394 45.084 12.394 45.062 14.062 C45.058 14.726 45.053 15.389 45.049 16.072 C45.037 17.715 45.021 19.357 45 21 C45.99 21 46.98 21 48 21 C48 25.95 48 30.9 48 36 C48.99 36 49.98 36 51 36 C51.049 36.831 51.098 37.663 51.148 38.52 C51.223 39.617 51.299 40.715 51.375 41.812 C51.406 42.36 51.437 42.907 51.469 43.471 C51.696 46.592 52.12 48.514 54 51 C54.125 53.688 54.125 53.688 54 56 C54.99 56 55.98 56 57 56 C57 54.02 57 52.04 57 50 C57.66 50 58.32 50 59 50 C59 48.35 59 46.7 59 45 C60.32 45 61.64 45 63 45 C63 43.02 63 41.04 63 39 C63.99 39 64.98 39 66 39 C66 37.02 66 35.04 66 33 C66.66 32.67 67.32 32.34 68 32 C68.781 30.187 68.781 30.187 69.5 28 C70.219 25.813 70.219 25.813 71 24 C71.33 23.835 71.33 23.835 73 23 C73.633 21.59 73.633 21.59 74.125 19.938 C74.293 19.39 74.46 18.842 74.633 18.277 C74.693 18.067 74.693 18.067 75 17 C75.66 17 76.32 17 77 17 C77 15.35 77 13.7 77 12 C78.32 12 79.64 12 81 12 C81 10.02 81 8.04 81 6 C81.99 6 82.98 6 84 6 C84 4.02 84 2.04 84 0 C98.85 0 113.7 0 129 0 C129 4.95 129 9.9 129 15 C128.34 15.33 127.68 15.66 127 16 C126.67 18.64 126.34 21.28 126 24 C125.34 24.33 124.68 24.66 124 25 C123.67 28.63 123.34 32.26 123 36 C122.01 36 121.02 36 120 36 C120 39.96 120 43.92 120 48 C119.01 48 118.02 48 117 48 C117 51.96 117 55.92 117 60 C116.67 60.165 116.67 60.165 115 61 C114.976 61.349 114.976 61.349 114.852 63.117 C114.777 64.027 114.702 64.937 114.625 65.875 C114.555 66.78 114.486 67.685 114.414 68.617 C114 71 114 71 112 73 C111.375 75.625 111.375 75.625 111 78 C106.034 78.025 101.068 78.043 96.101 78.055 C94.411 78.06 92.72 78.067 91.029 78.075 C88.604 78.088 86.179 78.093 83.754 78.098 C83.374 78.1 83.374 78.1 81.45 78.113 C80.749 78.113 80.048 78.113 79.326 78.114 C78.707 78.116 78.087 78.118 77.449 78.12 C76.971 78.081 76.493 78.041 76 78 C75 77 75 77 74.832 75.441 C74.826 74.821 74.819 74.201 74.812 73.562 C74.798 72.945 74.784 72.328 74.77 71.691 C75 70 75 70 77 68 C77.414 65.617 77.414 65.617 77.625 62.875 C77.7 61.965 77.775 61.055 77.852 60.117 C77.876 59.768 77.876 59.768 78 58 C78.99 57.67 79.98 57.34 81 57 C81 53.37 81 49.74 81 46 C81.99 45.67 82.98 45.34 84 45 C84 43.35 84 41.7 84 40 C83.01 40 82.02 40 81 40 C80.884 40.722 80.768 41.444 80.648 42.188 C79.204 48.454 75.606 54.677 72 60 C71.67 60.165 71.67 60.165 70 61 C69.67 62.65 69.34 64.3 69 66 C68.01 66 67.02 66 66 66 C66 67.98 66 69.96 66 72 C65.01 72 64.02 72 63 72 C63 73.98 63 75.96 63 78 C57.179 78.025 51.359 78.043 45.538 78.055 C43.556 78.06 41.574 78.067 39.593 78.075 C36.75 78.088 33.908 78.093 31.066 78.098 C30.621 78.1 30.621 78.1 28.364 78.113 C27.544 78.113 26.723 78.113 25.877 78.114 C25.151 78.116 24.425 78.118 23.677 78.12 C23.123 78.081 22.57 78.041 22 78 C21.67 77.67 21.34 77.34 21 77 C20.929 75.648 20.916 74.292 20.938 72.938 C20.947 72.204 20.956 71.471 20.965 70.715 C20.976 70.149 20.988 69.583 21 69 C20.01 68.67 19.02 68.34 18 68 C17.951 67.085 17.902 66.17 17.852 65.227 C17.777 64.026 17.701 62.825 17.625 61.625 C17.594 61.022 17.563 60.418 17.531 59.797 C17.512 59.507 17.512 59.507 17.414 58.039 C17.383 57.505 17.351 56.971 17.319 56.42 C17 55 17 55 15 53 C14.805 51.273 14.805 51.273 14.875 49.375 C14.893 48.743 14.911 48.112 14.93 47.461 C14.953 46.979 14.976 46.497 15 46 C14.01 46 13.02 46 12 46 C12.023 46.699 12.046 47.397 12.07 48.117 C12.079 48.572 12.079 48.572 12.125 50.875 C12.148 51.78 12.171 52.685 12.195 53.617 C12.131 54.404 12.066 55.19 12 56 C11.34 56.66 10.68 57.32 10 58 C9.586 59.945 9.586 59.945 9.375 62.125 C9.3 62.849 9.225 63.574 9.148 64.32 C9.099 64.875 9.05 65.429 9 66 C8.67 66.165 8.67 66.165 7 67 C6.67 70.63 6.34 74.26 6 78 C-0.93 78 -7.86 78 -15 78 C-15 76.68 -15 75.36 -15 74 C-14.67 73.835 -14.67 73.835 -13 73 C-12.951 72.374 -12.902 71.747 -12.852 71.102 C-12.777 70.284 -12.702 69.467 -12.625 68.625 C-12.555 67.813 -12.486 67.001 -12.414 66.164 C-12 64 -12 64 -10 62 C-9.586 60.055 -9.586 60.055 -9.375 57.875 C-9.3 57.151 -9.225 56.426 -9.148 55.68 C-9.099 55.125 -9.05 54.571 -9 54 C-8.67 53.835 -8.67 53.835 -7 53 C-6.67 49.37 -6.34 45.74 -6 42 C-5.01 42 -4.02 42 -3 42 C-3 38.37 -3 34.74 -3 31 C-2.01 30.67 -1.02 30.34 0 30 C-0.023 29.229 -0.046 28.458 -0.07 27.664 C-0.089 26.651 -0.107 25.638 -0.125 24.625 C-0.133 24.371 -0.133 24.371 -0.176 23.086 C-0.194 21.723 -0.102 20.359 0 19 C0.66 18.34 1.32 17.68 2 17 C2.304 15.09 2.508 13.296 2.625 11.375 C2.664 10.859 2.702 10.344 2.742 9.812 C2.836 8.542 2.919 7.271 3 6 C2.01 6 1.02 6 0 6 C0 4.02 0 2.04 0 0 Z " fill="#FFFFFF" transform="translate(405,51)"/>
<path d="M0 0 C8.832 -0.046 17.663 -0.082 26.495 -0.104 C30.595 -0.114 34.696 -0.128 38.796 -0.151 C42.752 -0.173 46.707 -0.185 50.662 -0.19 C52.173 -0.193 53.684 -0.201 55.195 -0.211 C57.307 -0.226 59.419 -0.228 61.531 -0.227 C61.845 -0.231 61.845 -0.231 63.436 -0.249 C64.959 -0.242 66.482 -0.129 68 0 C68.33 0.33 68.33 0.33 70 2 C72.125 2.625 72.125 2.625 74 3 C74.133 3.422 74.266 3.843 74.402 4.277 C74.491 4.551 74.491 4.551 74.938 5.938 C75.025 6.21 75.025 6.21 75.465 7.59 C76 9 76 9 77 10 C77.098 11.629 77.098 11.629 77.062 13.562 C77.053 14.203 77.044 14.844 77.035 15.504 C77.024 15.998 77.012 16.491 77 17 C76.505 17.165 76.505 17.165 74 18 C74 20.97 74 23.94 74 27 C73.01 27 72.02 27 71 27 C71.023 27.615 71.046 28.23 71.07 28.863 C71.088 29.672 71.106 30.48 71.125 31.312 C71.148 32.113 71.171 32.914 71.195 33.738 C70.98 36.228 70.378 36.995 69 39 C68.586 41.262 68.586 41.262 68.375 43.688 C68.3 44.496 68.225 45.304 68.148 46.137 C68.124 46.444 68.124 46.444 68 48 C67.505 48.165 67.505 48.165 65 49 C65.023 49.771 65.046 50.542 65.07 51.336 C65.089 52.349 65.107 53.362 65.125 54.375 C65.142 54.883 65.159 55.391 65.176 55.914 C65.194 57.277 65.102 58.641 65 60 C64.67 60.33 64.67 60.33 63 62 C62.762 63.586 62.762 63.586 62.688 65.375 C62.451 67.523 62.312 68.649 60.863 70.277 C59.5 71.313 59.5 71.313 58.156 72.176 C57 73 57 73 56 75 C54.35 75.33 52.7 75.66 51 76 C50.67 76.66 50.34 77.32 50 78 C40.829 78.116 31.659 78.205 22.487 78.259 C18.228 78.285 13.97 78.321 9.712 78.377 C5.601 78.432 1.49 78.461 -2.621 78.474 C-4.188 78.484 -5.755 78.502 -7.322 78.529 C-9.52 78.565 -11.717 78.57 -13.915 78.568 C-14.561 78.586 -15.207 78.604 -15.872 78.622 C-18.52 78.592 -20.302 78.511 -22.479 76.919 C-23.741 75.666 -24.874 74.375 -26 73 C-26.66 72.34 -27.32 71.68 -28 71 C-28.266 69.16 -28.266 69.16 -28.25 67.062 C-28.255 66.373 -28.26 65.683 -28.266 64.973 C-27.967 62.755 -27.236 61.825 -26 60 C-25.642 57.943 -25.499 55.921 -25.344 53.84 C-25 52 -25 52 -23 50 C-22.656 48.344 -22.656 48.344 -22.5 46.5 C-22.344 44.656 -22.344 44.656 -22 43 C-21.34 42.34 -20.68 41.68 -20 41 C-19.746 38.807 -19.581 36.7 -19.5 34.5 C-19.419 32.3 -19.254 30.193 -19 28 C-18.34 27.34 -17.68 26.68 -17 26 C-16.586 24.055 -16.586 24.055 -16.375 21.875 C-16.3 21.151 -16.225 20.426 -16.148 19.68 C-16.099 19.125 -16.05 18.571 -16 18 C-15.01 18 -14.02 18 -13 18 C-13 15.03 -13 12.06 -13 9 C-12.01 9 -11.02 9 -10 9 C-9.67 8.01 -9.34 7.02 -9 6 C-8.34 6 -7.68 6 -7 6 C-6.67 5.01 -6.34 4.02 -6 3 C-4.35 3 -2.7 3 -1 3 C-0.67 2.01 -0.34 1.02 0 0 Z " fill="#FFFFFF" transform="translate(559,51)"/>
<path d="M0 0 C10.89 0 21.78 0 33 0 C33.165 0.825 33.165 0.825 34 5 C33.01 5 32.02 5 31 5 C31 6.32 31 7.64 31 9 C30.257 9.557 29.515 10.114 28.75 10.688 C26.901 12.158 25.423 13.616 24 15.5 C21.995 18.146 19.619 19.994 17 22 C15.25 23.437 15.25 23.437 14 25 C13.856 25.825 13.711 26.65 13.562 27.5 C13 30 13 30 10.938 31.812 C10.618 32.008 10.618 32.008 9 33 C9.165 34.155 9.165 34.155 10 40 C10.495 40.165 10.495 40.165 13 41 C14.374 42.767 15.256 43.954 16 46 C15.75 48.25 15.75 48.25 15 51 C14.792 52.602 14.606 54.206 14.438 55.812 C14.396 56.208 14.396 56.208 14.184 58.207 C14.123 58.799 14.062 59.39 14 60 C13.505 60.165 13.505 60.165 11 61 C10.67 63.31 10.34 65.62 10 68 C10.639 68.144 11.279 68.289 11.938 68.438 C14 69 14 69 15 70 C15.139 72.006 15.043 73.987 15 76 C13.35 76 11.7 76 10 76 C10 76.66 10 77.32 10 78 C-2.54 78 -15.08 78 -28 78 C-28 74.7 -28 71.4 -28 68 C-27.67 67.67 -27.34 67.34 -27 67 C-26.768 65.485 -26.588 63.962 -26.438 62.438 C-26.354 61.611 -26.27 60.785 -26.184 59.934 C-26.153 59.615 -26.153 59.615 -26 58 C-25.01 57.67 -24.02 57.34 -23 57 C-23 54.36 -23 51.72 -23 49 C-22.01 48.67 -21.02 48.34 -20 48 C-20 46.68 -20 45.36 -20 44 C-20.804 44.021 -21.609 44.041 -22.438 44.062 C-23.283 44.042 -24.129 44.021 -25 44 C-25.33 43.67 -25.66 43.34 -26 43 C-27.707 42.832 -27.707 42.832 -29.812 42.812 C-30.5 42.798 -31.187 42.784 -31.895 42.77 C-34 43 -34 43 -38 45 C-38 47.97 -38 50.94 -38 54 C-38.99 54 -39.98 54 -41 54 C-41 56.97 -41 59.94 -41 63 C-41.99 63 -42.98 63 -44 63 C-44 66.96 -44 70.92 -44 75 C-48.5 78.375 -48.5 78.375 -51.667 78.341 C-52.367 78.34 -53.068 78.34 -53.789 78.34 C-54.162 78.332 -54.162 78.332 -56.047 78.293 C-56.818 78.289 -57.589 78.284 -58.384 78.28 C-60.84 78.263 -63.295 78.226 -65.75 78.188 C-67.418 78.172 -69.086 78.159 -70.754 78.146 C-74.836 78.113 -78.918 78.063 -83 78 C-82.67 76.68 -82.34 75.36 -82 74 C-81.34 74 -80.68 74 -80 74 C-80.023 73.157 -80.046 72.314 -80.07 71.445 C-80.089 70.339 -80.107 69.232 -80.125 68.125 C-80.142 67.569 -80.159 67.014 -80.176 66.441 C-80.194 64.96 -80.102 63.478 -80 62 C-79.34 61.34 -78.68 60.68 -78 60 C-77.586 58.055 -77.586 58.055 -77.375 55.875 C-77.3 55.151 -77.225 54.426 -77.148 53.68 C-77.099 53.125 -77.05 52.571 -77 52 C-76.505 51.835 -76.505 51.835 -74 51 C-73.939 50.218 -73.879 49.435 -73.816 48.629 C-73.732 47.607 -73.647 46.585 -73.562 45.562 C-73.523 45.046 -73.484 44.53 -73.443 43.998 C-73.33 42.662 -73.168 41.33 -73 40 C-72.835 39.835 -72.835 39.835 -72 39 C-71.768 37.485 -71.588 35.962 -71.438 34.438 C-71.354 33.611 -71.27 32.785 -71.184 31.934 C-71.123 31.296 -71.062 30.657 -71 30 C-70.01 29.67 -69.02 29.34 -68 29 C-67.67 25.37 -67.34 21.74 -67 18 C-66.34 18 -65.68 18 -65 18 C-65.142 15.916 -65.288 13.833 -65.438 11.75 C-65.477 11.163 -65.516 10.577 -65.557 9.973 C-65.599 9.399 -65.64 8.825 -65.684 8.234 C-65.72 7.711 -65.757 7.187 -65.795 6.647 C-66.033 4.737 -66.533 2.867 -67 1 C-53.47 1 -39.94 1 -26 1 C-26 3.64 -26 6.28 -26 9 C-26.99 9 -27.98 9 -29 9 C-29 11.97 -29 14.94 -29 18 C-29.33 18.165 -29.33 18.165 -31 19 C-31.049 19.699 -31.098 20.397 -31.148 21.117 C-31.223 22.027 -31.298 22.937 -31.375 23.875 C-31.445 24.78 -31.514 25.685 -31.586 26.617 C-32 29 -32 29 -34 31 C-34.625 33.125 -34.625 33.125 -35 35 C-30.323 33.4 -30.323 33.4 -28.688 31.375 C-28.461 30.921 -28.234 30.468 -28 30 C-27.34 30 -26.68 30 -26 30 C-25.835 29.505 -25.835 29.505 -25 27 C-24.34 27 -23.68 27 -23 27 C-22.835 26.505 -22.835 26.505 -22 24 C-21.34 24 -20.68 24 -20 24 C-19.835 23.505 -19.835 23.505 -19 21 C-18.34 21 -17.68 21 -17 21 C-16.835 20.505 -16.835 20.505 -16 18 C-15.34 18 -14.68 18 -14 18 C-13.835 17.505 -13.835 17.505 -13 15 C-12.34 15 -11.68 15 -11 15 C-10.876 14.722 -10.876 14.722 -10.25 13.312 C-8.435 9.955 -6.471 6.736 -3 5 C-2.01 3.35 -1.02 1.7 0 0 Z " fill="#FFFFFF" transform="translate(821,51)"/>
<path d="M0 0 C0.664 -0 1.328 -0.001 2.012 -0.001 C4.193 0.001 6.373 0.024 8.553 0.048 C10.071 0.053 11.588 0.057 13.106 0.06 C17.089 0.072 21.072 0.101 25.056 0.135 C29.125 0.165 33.194 0.179 37.262 0.194 C45.239 0.226 53.214 0.277 61.19 0.341 C61.355 0.836 61.355 0.836 62.19 3.341 C62.401 3.407 62.401 3.407 63.468 3.743 C64.015 3.92 64.563 4.096 65.128 4.278 C65.673 4.452 66.218 4.626 66.78 4.805 C68.19 5.341 68.19 5.341 69.19 6.341 C69.304 7.831 69.304 7.831 69.288 9.719 C69.286 10.056 69.286 10.056 69.278 11.76 C69.274 12.114 69.274 12.114 69.253 13.903 C69.248 14.614 69.244 15.325 69.239 16.057 C69.227 17.819 69.211 19.58 69.19 21.341 C68.53 21.671 67.87 22.001 67.19 22.341 C66.86 25.971 66.53 29.601 66.19 33.341 C65.695 33.506 65.695 33.506 63.19 34.341 C63.025 34.671 63.025 34.671 62.19 36.341 C50.31 36.341 38.43 36.341 26.19 36.341 C26.19 34.691 26.19 33.041 26.19 31.341 C26.85 30.681 27.51 30.021 28.19 29.341 C28.569 26.993 28.569 26.993 28.753 24.278 C28.869 22.63 29.008 20.983 29.19 19.341 C29.355 19.176 29.355 19.176 30.19 18.341 C30.422 16.826 30.602 15.303 30.753 13.778 C30.795 13.365 30.795 13.365 31.007 11.274 C31.067 10.636 31.128 9.998 31.19 9.341 C29.083 9.401 26.983 9.488 24.878 9.591 C24.283 9.605 23.688 9.619 23.075 9.634 C20.019 9.804 18.631 9.937 16.315 12.059 C15.026 14.674 14.694 16.688 14.503 19.591 C14.437 20.483 14.371 21.375 14.303 22.294 C14.266 22.969 14.229 23.645 14.19 24.341 C13.86 24.506 13.86 24.506 12.19 25.341 C12.141 26.1 12.092 26.859 12.042 27.641 C11.967 28.645 11.891 29.649 11.815 30.653 C11.746 31.639 11.676 32.625 11.604 33.641 C11.193 36.32 10.676 37.204 9.19 39.341 C8.776 41.602 8.776 41.602 8.565 44.028 C8.49 44.836 8.416 45.645 8.339 46.477 C8.29 47.092 8.241 47.707 8.19 48.341 C7.86 48.506 7.86 48.506 6.19 49.341 C6.141 49.895 6.092 50.449 6.042 51.02 C5.967 51.745 5.892 52.469 5.815 53.216 C5.78 53.575 5.78 53.575 5.604 55.395 C5.19 57.341 5.19 57.341 3.19 59.341 C3.045 61.28 3.002 63.035 3.065 64.966 C3.106 66.739 3.148 68.513 3.19 70.341 C8.14 70.341 13.09 70.341 18.19 70.341 C18.19 68.361 18.19 66.381 18.19 64.341 C18.85 64.011 19.51 63.681 20.19 63.341 C20.52 60.371 20.85 57.401 21.19 54.341 C22.18 54.011 23.17 53.681 24.19 53.341 C24.19 51.361 24.19 49.381 24.19 47.341 C22.54 47.011 20.89 46.681 19.19 46.341 C18.86 45.351 18.53 44.361 18.19 43.341 C31.72 43.341 45.25 43.341 59.19 43.341 C59.19 47.961 59.19 52.581 59.19 57.341 C58.2 57.341 57.21 57.341 56.19 57.341 C56.19 60.311 56.19 63.281 56.19 66.341 C55.2 66.341 54.21 66.341 53.19 66.341 C53.19 70.301 53.19 74.261 53.19 78.341 C26.46 78.341 -0.27 78.341 -27.81 78.341 C-28.14 77.351 -28.47 76.361 -28.81 75.341 C-30.81 74.216 -30.81 74.216 -32.81 73.341 C-33.14 73.011 -33.47 72.681 -33.81 72.341 C-33.923 70.85 -33.923 70.85 -33.907 68.962 C-33.906 68.625 -33.906 68.625 -33.898 66.921 C-33.889 66.214 -33.881 65.507 -33.872 64.778 C-33.868 64.067 -33.863 63.356 -33.859 62.624 C-33.847 60.863 -33.83 59.102 -33.81 57.341 C-32.82 57.341 -31.83 57.341 -30.81 57.341 C-30.833 56.57 -30.856 55.799 -30.88 55.005 C-30.899 53.992 -30.917 52.979 -30.935 51.966 C-30.952 51.458 -30.968 50.95 -30.986 50.427 C-31.004 49.063 -30.912 47.7 -30.81 46.341 C-30.15 45.681 -29.49 45.021 -28.81 44.341 C-28.212 41.993 -28.212 41.993 -27.747 39.278 C-26.907 34.438 -26.907 34.438 -25.81 33.341 C-25.529 31.315 -25.363 29.289 -25.189 27.251 C-24.81 25.341 -24.81 25.341 -22.81 23.341 C-22.318 21.169 -22.318 21.169 -21.935 18.591 C-21.117 14.174 -20.107 10.531 -16.81 7.341 C-14.56 6.466 -14.56 6.466 -12.81 6.341 C-12.779 6.124 -12.779 6.124 -12.622 5.028 C-11.616 2.939 -10.298 2.107 -8.313 0.972 C-5.593 -0.17 -2.911 -0.051 0 0 Z " fill="#FFFFFF" transform="translate(60.809814453125,50.659423828125)"/>
<path d="M0 0 C5.72 -0.023 11.439 -0.041 17.159 -0.052 C19.814 -0.057 22.47 -0.064 25.126 -0.075 C28.176 -0.088 31.227 -0.093 34.277 -0.098 C34.756 -0.1 34.756 -0.1 37.178 -0.113 C38.059 -0.113 38.94 -0.113 39.847 -0.114 C40.627 -0.116 41.406 -0.118 42.209 -0.12 C42.505 -0.1 42.505 -0.1 44 0 C44.165 0.165 44.165 0.165 45 1 C45.071 2.352 45.084 3.708 45.062 5.062 C45.053 5.796 45.044 6.529 45.035 7.285 C45.024 7.851 45.012 8.417 45 9 C45.99 9 46.98 9 48 9 C48.049 9.771 48.098 10.542 48.148 11.336 C48.223 12.349 48.299 13.362 48.375 14.375 C48.406 14.883 48.437 15.391 48.469 15.914 C48.577 17.283 48.784 18.644 49 20 C49.33 20.33 49.33 20.33 51 22 C51.322 24.78 51.463 27.508 51.566 30.301 C51.648 31.872 51.819 33.437 52 35 C52.66 35.66 53.32 36.32 54 37 C54.227 38.512 54.227 38.512 54.195 40.258 C54.189 40.883 54.182 41.508 54.176 42.152 C54.167 42.478 54.167 42.478 54.125 44.125 C54.116 44.784 54.107 45.442 54.098 46.121 C54.074 47.748 54.038 49.374 54 51 C54.99 51 55.98 51 57 51 C57 54.96 57 58.92 57 63 C57.99 63 58.98 63 60 63 C60 66.96 60 70.92 60 75 C60.99 75 61.98 75 63 75 C63 75.99 63 76.98 63 78 C56.889 78.023 50.778 78.041 44.668 78.052 C41.83 78.057 38.993 78.064 36.156 78.075 C33.42 78.086 30.684 78.092 27.947 78.095 C26.902 78.097 25.856 78.1 24.81 78.106 C23.349 78.113 21.889 78.113 20.428 78.114 C19.595 78.116 18.763 78.118 17.905 78.12 C17.276 78.081 16.648 78.041 16 78 C15.67 77.67 15.34 77.34 15 77 C14.927 75.133 14.907 73.303 14.938 71.438 C14.942 70.917 14.947 70.397 14.951 69.861 C14.963 68.574 14.981 67.287 15 66 C14.216 66.041 13.433 66.082 12.625 66.125 C11.759 66.084 10.892 66.043 10 66 C9.67 65.67 9.67 65.67 8 64 C6.062 63.826 4.271 63.767 2.336 63.805 C2.06 63.806 2.06 63.806 0.663 63.813 C-1.1 63.824 -2.862 63.85 -4.625 63.875 C-5.82 63.885 -7.016 63.894 -8.211 63.902 C-11.141 63.924 -14.07 63.959 -17 64 C-17 64.66 -17 65.32 -17 66 C-17.433 66.103 -17.866 66.206 -18.312 66.312 C-20 67 -20 67 -23 70 C-23.99 72.97 -24.98 75.94 -26 79 C-32.6 79 -39.2 79 -46 79 C-46 76.69 -46 74.38 -46 72 C-45.01 72 -44.02 72 -43 72 C-43 70.02 -43 68.04 -43 66 C-38.25 63 -38.25 63 -36 63 C-35.67 62.01 -35.34 61.02 -35 60 C-34.34 60 -33.68 60 -33 60 C-33 58.35 -33 56.7 -33 55 C-32.505 54.835 -32.505 54.835 -30 54 C-30 53.34 -30 52.68 -30 52 C-29.775 51.965 -29.775 51.965 -28.637 51.785 C-27 51 -27 51 -25.832 48.934 C-25.496 48.11 -25.159 47.286 -24.812 46.438 C-24.468 45.611 -24.124 44.785 -23.77 43.934 C-23.643 43.615 -23.643 43.615 -23 42 C-22.34 42 -21.68 42 -21 42 C-20.67 41.01 -20.34 40.02 -20 39 C-19.34 39 -18.68 39 -18 39 C-18 37.02 -18 35.04 -18 33 C-17.01 33 -16.02 33 -15 33 C-14.67 32.01 -14.34 31.02 -14 30 C-13.34 30 -12.68 30 -12 30 C-11.835 29.505 -11.835 29.505 -11 27 C-10.34 27 -9.68 27 -9 27 C-9 25.02 -9 23.04 -9 21 C-8.01 21 -7.02 21 -6 21 C-5.732 20.443 -5.464 19.886 -5.188 19.312 C-4 17 -4 17 -2.469 14.75 C-0.685 11.798 -0.457 9.08 -0.312 5.688 C-0.278 5.138 -0.244 4.588 -0.209 4.021 C-0.127 2.682 -0.062 1.341 0 0 Z " fill="#FFFFFF" transform="translate(171,51)"/>
<path d="M0 0 C13.53 0 27.06 0 41 0 C41.165 0.66 41.165 0.66 42 4 C42.66 4 43.32 4 44 4 C44 5.65 44 7.3 44 9 C45.32 9 46.64 9 48 9 C48 11.97 48 14.94 48 18 C48.99 18 49.98 18 51 18 C51.049 18.554 51.098 19.109 51.148 19.68 C51.186 20.042 51.186 20.042 51.375 21.875 C51.41 22.235 51.41 22.235 51.586 24.055 C52 26 52 26 54 28 C54.125 30.625 54.125 30.625 54 33 C54.99 33 55.98 33 57 33 C58.333 37.667 59.667 42.333 61 47 C62.32 47 63.64 47 65 47 C65.024 46.584 65.024 46.584 65.148 44.48 C65.223 43.383 65.299 42.285 65.375 41.188 C65.406 40.64 65.437 40.093 65.469 39.529 C65.7 36.346 66.239 34.586 68 32 C68.414 29.301 68.414 29.301 68.625 26.312 C68.664 25.801 68.702 25.29 68.742 24.764 C68.836 23.51 68.919 22.255 69 21 C69.99 21 70.98 21 72 21 C71.977 20.301 71.954 19.603 71.93 18.883 C71.912 17.973 71.894 17.063 71.875 16.125 C71.852 15.22 71.829 14.315 71.805 13.383 C71.869 12.596 71.934 11.81 72 11 C72.66 10.34 73.32 9.68 74 9 C74.379 7.09 74.379 7.09 74.562 4.938 C74.903 1.097 74.903 1.097 76 0 C77.674 -0.114 77.674 -0.114 79.816 -0.098 C80.58 -0.094 81.344 -0.091 82.131 -0.088 C82.933 -0.08 83.736 -0.071 84.562 -0.062 C85.369 -0.058 86.175 -0.053 87.006 -0.049 C89.004 -0.037 91.002 -0.021 93 0 C93.054 1.959 93.094 3.916 93.125 5.875 C93.142 6.431 93.159 6.986 93.176 7.559 C93.194 9.04 93.102 10.522 93 12 C92.34 12.66 91.68 13.32 91 14 C90.656 16.277 90.656 16.277 90.5 18.938 C90.296 22.404 89.928 24.176 88 27 C87.656 29.156 87.656 29.156 87.5 31.5 C87.283 34.759 86.781 36.328 85 39 C84.586 41.262 84.586 41.262 84.375 43.688 C84.3 44.496 84.225 45.304 84.148 46.137 C84.124 46.444 84.124 46.444 84 48 C83.67 48.165 83.67 48.165 82 49 C81.976 49.277 81.976 49.277 81.852 50.68 C81.814 51.042 81.814 51.042 81.625 52.875 C81.59 53.235 81.59 53.235 81.414 55.055 C81 57 81 57 79 59 C78.656 61.277 78.656 61.277 78.5 63.938 C78.221 68.671 78.221 68.671 77.031 70.441 C76 72 76 72 75 78 C62.13 78 49.26 78 36 78 C35.835 76.845 35.835 76.845 35 71 C34.67 70.67 34.67 70.67 33 69 C32.737 66.967 32.91 65.059 33 63 C32.01 62.67 31.02 62.34 30 62 C30 59.36 30 56.72 30 54 C29.01 54 28.02 54 27 54 C27 52.02 27 50.04 27 48 C26.01 47.67 25.02 47.34 24 47 C23.867 46.506 23.734 46.013 23.598 45.504 C23.421 44.863 23.244 44.223 23.062 43.562 C22.888 42.924 22.714 42.286 22.535 41.629 C22 40 22 40 21 39 C20.861 36.994 20.957 35.013 21 33 C20.01 32.67 19.02 32.34 18 32 C18 31.01 18 30.02 18 29 C17.01 29.33 16.02 29.66 15 30 C14.97 30.319 14.97 30.319 14.816 31.934 C14.733 32.76 14.649 33.586 14.562 34.438 C14.481 35.261 14.4 36.085 14.316 36.934 C14 39 14 39 13 40 C12.764 42.193 12.579 44.363 12.438 46.562 C12.394 47.178 12.351 47.794 12.307 48.428 C12.2 49.952 12.1 51.476 12 53 C11.67 53.165 11.67 53.165 10 54 C9.67 57.63 9.34 61.26 9 65 C8.505 65.165 8.505 65.165 6 66 C6.017 66.307 6.017 66.307 6.105 67.863 C6.133 68.672 6.16 69.48 6.188 70.312 C6.205 70.713 6.205 70.713 6.293 72.738 C6 75 6 75 4.746 76.623 C2.576 78.334 1.504 78.351 -1.23 78.293 C-2.033 78.283 -2.835 78.274 -3.662 78.264 C-4.495 78.239 -5.329 78.213 -6.188 78.188 C-6.61 78.181 -6.61 78.181 -8.748 78.146 C-10.833 78.111 -12.916 78.062 -15 78 C-15.125 75.625 -15.125 75.625 -15 73 C-14.67 72.67 -14.67 72.67 -13 71 C-12.656 69.344 -12.656 69.344 -12.5 67.5 C-12.344 65.656 -12.344 65.656 -12 64 C-11.34 63.34 -10.68 62.68 -10 62 C-9.656 59.688 -9.656 59.688 -9.5 57 C-9.344 54.312 -9.344 54.312 -9 52 C-8.34 51.34 -7.68 50.68 -7 50 C-6.696 48.09 -6.492 46.296 -6.375 44.375 C-6.356 44.117 -6.356 44.117 -6.258 42.812 C-6.164 41.542 -6.081 40.271 -6 39 C-5.01 39 -4.02 39 -3 39 C-3 35.37 -3 31.74 -3 28 C-2.01 27.67 -1.02 27.34 0 27 C-0.023 26.446 -0.046 25.891 -0.07 25.32 C-0.079 24.958 -0.079 24.958 -0.125 23.125 C-0.148 22.406 -0.171 21.686 -0.195 20.945 C0 19 0 19 2 17 C2.304 15.09 2.508 13.296 2.625 11.375 C2.664 10.859 2.702 10.344 2.742 9.812 C2.836 8.542 2.919 7.271 3 6 C2.01 6 1.02 6 0 6 C0 4.02 0 2.04 0 0 Z " fill="#FFFFFF" transform="translate(648,51)"/>
<path d="M0 0 C25.41 0 50.82 0 77 0 C77 0.99 77 1.98 77 3 C76.446 3.266 75.891 3.531 75.32 3.805 C74.596 4.158 73.871 4.511 73.125 4.875 C72.406 5.223 71.686 5.571 70.945 5.93 C69 7 69 7 67 9 C65.089 9.241 65.089 9.241 62.734 9.227 C61.853 9.227 60.972 9.227 60.065 9.227 C59.113 9.216 58.161 9.206 57.18 9.195 C56.693 9.194 56.693 9.194 54.229 9.187 C51.641 9.179 49.054 9.159 46.466 9.137 C43.825 9.117 41.184 9.108 38.543 9.098 C33.362 9.076 28.181 9.041 23 9 C23 11.97 23 14.94 23 18 C22.01 18.33 21.02 18.66 20 19 C20.165 20.155 20.165 20.155 21 26 C22.019 26.02 23.039 26.04 24.089 26.06 C27.865 26.136 31.641 26.225 35.417 26.317 C37.052 26.356 38.687 26.391 40.323 26.422 C42.671 26.467 45.019 26.525 47.367 26.586 C47.734 26.592 47.734 26.592 49.59 26.621 C50.27 26.641 50.951 26.661 51.652 26.681 C51.952 26.688 51.952 26.688 53.469 26.722 C55 27 55 27 57 29 C58.727 29.414 58.727 29.414 60.625 29.625 C61.257 29.7 61.888 29.775 62.539 29.852 C63.021 29.901 63.503 29.95 64 30 C64.165 30.66 64.165 30.66 65 34 C65.66 34 66.32 34 67 34 C67.029 36.646 67.047 39.292 67.062 41.938 C67.071 42.692 67.079 43.447 67.088 44.225 C67.091 44.943 67.094 45.662 67.098 46.402 C67.103 47.067 67.108 47.732 67.114 48.418 C67.095 48.679 67.095 48.679 67 50 C66.67 50.33 66.34 50.66 66 51 C65.765 53.322 65.605 55.633 65.482 57.963 C65.387 59.315 65.198 60.659 65 62 C64.67 62.33 64.67 62.33 63 64 C62.897 64.784 62.794 65.567 62.688 66.375 C61.953 69.18 61.685 69.497 59.5 71.125 C59.057 71.416 58.613 71.708 58.156 72.008 C57 73 57 73 56.656 74.492 C56 76 56 76 53.942 77.08 C50.436 78.385 46.971 78.264 43.272 78.227 C42.891 78.227 42.891 78.227 40.965 78.228 C38.459 78.227 35.954 78.211 33.449 78.195 C31.708 78.192 29.966 78.189 28.224 78.187 C23.649 78.179 19.074 78.159 14.499 78.137 C9.827 78.117 5.155 78.108 0.482 78.098 C-8.678 78.076 -17.839 78.042 -27 78 C-27 77.01 -27 76.02 -27 75 C-26.34 74.835 -26.34 74.835 -23 74 C-23 73.34 -23 72.68 -23 72 C-17.557 70.059 -12.635 69.744 -6.891 69.84 C-6.042 69.845 -5.193 69.85 -4.319 69.856 C-1.629 69.873 1.06 69.904 3.75 69.938 C6.454 69.965 9.158 69.99 11.862 70.009 C13.539 70.021 15.216 70.038 16.893 70.062 C17.651 70.069 18.409 70.075 19.19 70.082 C19.855 70.09 20.521 70.098 21.206 70.107 C23 70 23 70 26 69 C26 65.37 26 61.74 26 58 C26.99 57.67 27.98 57.34 29 57 C28.67 55.35 28.34 53.7 28 52 C27.541 51.992 27.082 51.984 26.609 51.975 C21.839 51.89 17.071 51.79 12.302 51.683 C10.521 51.644 8.74 51.609 6.959 51.578 C4.402 51.533 1.846 51.475 -0.711 51.414 C-1.51 51.403 -2.309 51.391 -3.132 51.379 C-3.873 51.359 -4.613 51.339 -5.376 51.319 C-6.029 51.306 -6.682 51.292 -7.355 51.278 C-9 51 -9 51 -11 49 C-11.402 48.938 -11.402 48.938 -13.438 48.625 C-16 48 -16 48 -17.648 46.414 C-19.497 43.112 -19.335 40.461 -19.188 36.75 C-19.174 36.1 -19.16 35.451 -19.146 34.781 C-19.111 33.187 -19.058 31.593 -19 30 C-18.01 29.67 -17.02 29.34 -16 29 C-15.67 25.37 -15.34 21.74 -15 18 C-14.34 18 -13.68 18 -13 18 C-13 15.03 -13 12.06 -13 9 C-12.01 9 -11.02 9 -10 9 C-9.67 8.01 -9.34 7.02 -9 6 C-8.34 6 -7.68 6 -7 6 C-6.67 5.01 -6.34 4.02 -6 3 C-4.35 3 -2.7 3 -1 3 C-0.67 2.01 -0.34 1.02 0 0 Z " fill="#FFFFFF" transform="translate(268,51)"/>
<path d="M0 0 C28.38 0 56.76 0 86 0 C86 2.97 86 5.94 86 9 C70.82 9 55.64 9 40 9 C40 11.31 40 13.62 40 16 C39.835 16.165 39.835 16.165 39 17 C38.767 18.682 38.587 20.371 38.438 22.062 C38.354 22.982 38.27 23.901 38.184 24.848 C38.153 25.203 38.153 25.203 38 27 C37.67 27.165 37.67 27.165 36 28 C35.973 29.146 35.954 30.292 35.938 31.438 C35.926 32.076 35.914 32.714 35.902 33.371 C35.935 33.909 35.967 34.446 36 35 C37 36 37 36 38.487 36.158 C38.806 36.166 38.806 36.166 40.418 36.205 C41.139 36.225 41.86 36.245 42.602 36.266 C42.993 36.274 42.993 36.274 44.973 36.316 C45.371 36.327 45.371 36.327 47.39 36.379 C49.947 36.445 52.505 36.504 55.062 36.562 C56.792 36.606 58.522 36.649 60.252 36.693 C64.501 36.801 68.751 36.902 73 37 C72.34 38.65 71.68 40.3 71 42 C70.784 42.004 70.784 42.004 69.691 42.025 C65.198 42.111 60.704 42.21 56.211 42.317 C54.534 42.356 52.857 42.391 51.18 42.422 C48.769 42.468 46.359 42.526 43.949 42.586 C43.574 42.592 43.574 42.592 41.676 42.621 C40.976 42.641 40.275 42.661 39.553 42.681 C38.938 42.694 38.323 42.708 37.689 42.722 C35.678 43.053 34.568 43.714 33 45 C32.488 46.508 32.488 46.508 32.312 48.125 C32.261 48.599 32.261 48.599 32 51 C31.01 51 30.02 51 29 51 C29 53.97 29 56.94 29 60 C28.67 60.165 28.67 60.165 27 61 C27 63.64 27 66.28 27 69 C27.69 68.995 28.381 68.99 29.092 68.984 C31.684 68.967 34.277 68.954 36.869 68.945 C37.986 68.94 39.102 68.933 40.218 68.925 C46.23 68.879 52.062 68.918 58 70 C58.908 70.165 59.815 70.33 60.75 70.5 C62.561 70.903 64.262 71.36 66 72 C66 72.99 66 73.98 66 75 C65.526 75.124 65.051 75.248 64.562 75.375 C64.305 75.478 64.305 75.478 63 76 C62.67 76.66 62.34 77.32 62 78 C37.25 78 12.5 78 -13 78 C-13 76.02 -13 74.04 -13 72 C-12.01 72 -11.02 72 -10 72 C-10 68.37 -10 64.74 -10 61 C-9.67 60.835 -9.67 60.835 -8 60 C-7.67 56.04 -7.34 52.08 -7 48 C-6.67 47.835 -6.67 47.835 -5 47 C-4.67 43.7 -4.34 40.4 -4 37 C-3.01 37 -2.02 37 -1 37 C-1.023 36.374 -1.046 35.747 -1.07 35.102 C-1.088 34.284 -1.106 33.467 -1.125 32.625 C-1.148 31.813 -1.171 31.001 -1.195 30.164 C-1 28 -1 28 1 26 C1.344 23.688 1.344 23.688 1.5 21 C1.656 18.312 1.656 18.312 2 16 C2.66 15.34 3.32 14.68 4 14 C4.414 12.055 4.414 12.055 4.625 9.875 C4.7 9.151 4.775 8.426 4.852 7.68 C4.901 7.125 4.95 6.571 5 6 C4.361 5.752 3.721 5.505 3.062 5.25 C2.382 4.837 1.701 4.425 1 4 C0.67 2.68 0.34 1.36 0 0 Z " fill="#FFFFFF" transform="translate(862,51)"/>
<path d="M0 0 C13.86 0 27.72 0 42 0 C46.055 5.068 47.959 8.427 49.535 14.512 C50 16 50 16 51 17 C51.072 18.686 51.084 20.375 51.062 22.062 C51.053 22.982 51.044 23.901 51.035 24.848 C51.024 25.558 51.012 26.268 51 27 C53.375 26.25 53.375 26.25 56 25 C57.312 22.875 57.312 22.875 58 21 C58.66 21 59.32 21 60 21 C60.165 20.505 60.165 20.505 61 18 C61.66 18 62.32 18 63 18 C63.165 17.505 63.165 17.505 64 15 C64.66 15 65.32 15 66 15 C66.33 14.01 66.66 13.02 67 12 C67.66 12 68.32 12 69 12 C69.33 11.01 69.66 10.02 70 9 C70.66 9 71.32 9 72 9 C72.33 8.01 72.66 7.02 73 6 C73.66 6 74.32 6 75 6 C75.33 5.01 75.66 4.02 76 3 C76.66 3 77.32 3 78 3 C78.33 2.01 78.66 1.02 79 0 C84.61 0 90.22 0 96 0 C96 0.99 96 1.98 96 3 C95.01 3 94.02 3 93 3 C92.876 3.278 92.876 3.278 92.25 4.688 C90.435 8.045 88.471 11.264 85 13 C84.562 14.179 84.124 15.359 83.688 16.539 C81.627 20.917 77.986 24.149 74.184 27.004 C72.52 28.404 71.327 30.062 70.031 31.797 C68.95 33.058 67.874 33.828 66.5 34.75 C62.843 37.467 61.577 41.877 60 46 C59.01 46 58.02 46 57 46 C57 49.63 57 53.26 57 57 C56.67 57.165 56.67 57.165 55 58 C54.67 60.64 54.34 63.28 54 66 C53.01 66 52.02 66 51 66 C51 69.96 51 73.92 51 78 C46.034 78.025 41.068 78.043 36.101 78.055 C34.411 78.06 32.72 78.067 31.029 78.075 C28.604 78.088 26.179 78.093 23.754 78.098 C23.374 78.1 23.374 78.1 21.45 78.113 C20.749 78.113 20.048 78.113 19.326 78.114 C18.707 78.116 18.087 78.118 17.449 78.12 C16.971 78.081 16.493 78.041 16 78 C15.67 77.67 15.34 77.34 15 77 C14.832 75.004 14.832 75.004 14.812 72.562 C14.798 71.759 14.784 70.956 14.77 70.129 C15 68 15 68 17 66 C17.305 63.925 17.509 61.959 17.625 59.875 C17.664 59.312 17.702 58.748 17.742 58.168 C17.836 56.779 17.919 55.39 18 54 C18.99 54 19.98 54 21 54 C20.89 51.374 20.76 48.75 20.625 46.125 C20.594 45.379 20.563 44.632 20.531 43.863 C20.493 43.148 20.454 42.432 20.414 41.695 C20.383 41.035 20.351 40.376 20.319 39.696 C20 38 20 38 18 36 C17.312 34.342 16.644 32.675 16 31 C15.67 30.67 15.34 30.34 15 30 C14.861 27.994 14.957 26.013 15 24 C14.01 24 13.02 24 12 24 C12 22.02 12 20.04 12 18 C10.68 18 9.36 18 8 18 C8 16.35 8 14.7 8 13 C7.01 12.67 6.02 12.34 5 12 C4.807 11.434 4.613 10.868 4.414 10.285 C4.154 9.552 3.893 8.818 3.625 8.062 C3.497 7.697 3.497 7.697 2.852 5.848 C2 4 2 4 0 3 C0 2.01 0 1.02 0 0 Z " fill="#FFFFFF" transform="translate(951,51)"/>
<path d="M0 0 C0.165 0.33 0.165 0.33 1 2 C3.31 2 5.62 2 8 2 C8.33 1.34 8.66 0.68 9 0 C11.374 0.573 13.695 1.193 16 2 C16 2.99 16 3.98 16 5 C11.804 7.022 8.351 7.277 3.731 7.227 C3.018 7.227 2.306 7.228 1.571 7.228 C-0.772 7.227 -3.114 7.211 -5.457 7.195 C-7.087 7.192 -8.716 7.189 -10.346 7.187 C-14.625 7.179 -18.904 7.159 -23.183 7.137 C-27.554 7.117 -31.924 7.108 -36.295 7.098 C-44.863 7.076 -53.432 7.042 -62 7 C-62 5.68 -62 4.36 -62 3 C-55.326 2.21 -48.798 1.882 -42.082 1.973 C-40.232 1.985 -38.383 1.998 -36.533 2.01 C-33.663 2.035 -30.793 2.063 -27.923 2.096 C-25.122 2.126 -22.321 2.144 -19.52 2.16 C-18.668 2.174 -17.817 2.187 -16.94 2.201 C-12.497 2.22 -8.701 1.898 -4.49 0.432 C-3 0 -3 0 0 0 Z " fill="#FFFFFF" transform="translate(912,121)"/>
<path d="M0 0 C14.19 0 28.38 0 43 0 C43 1.32 43 2.64 43 4 C28.81 4 14.62 4 0 4 C0 2.68 0 1.36 0 0 Z " fill="#FFFFFF" transform="translate(490,52)"/>
<path d="M0 0 C13.2 0 26.4 0 40 0 C40 1.32 40 2.64 40 4 C35.25 4.194 30.499 4.372 25.748 4.537 C24.133 4.595 22.518 4.658 20.904 4.724 C18.578 4.818 16.252 4.899 13.926 4.977 C13.208 5.009 12.49 5.041 11.75 5.074 C7.661 5.195 4.591 5.065 1 3 C0.67 2.01 0.34 1.02 0 0 Z " fill="#FFFFFF" transform="translate(79,94)"/>
<path d="M0 0 C12.87 0 25.74 0 39 0 C39 1.32 39 2.64 39 4 C25.8 4 12.6 4 -1 4 C-0.67 2.68 -0.34 1.36 0 0 Z " fill="#FFFFFF" transform="translate(428,124)"/>
<path d="M0 0 C14.85 0 29.7 0 45 0 C45 4.95 45 9.9 45 15 C44.34 15.33 43.68 15.66 43 16 C42.67 18.64 42.34 21.28 42 24 C41.67 24.165 41.67 24.165 40 25 C39.67 28.63 39.34 32.26 39 36 C38.01 35.67 37.02 35.34 36 35 C36.66 35 37.32 35 38 35 C38 31.37 38 27.74 38 24 C38.99 23.67 39.98 23.34 41 23 C41 20.36 41 17.72 41 15 C41.99 14.67 42.98 14.34 44 14 C44 9.71 44 5.42 44 1 C29.81 1 15.62 1 1 1 C1 2.98 1 4.96 1 7 C0.01 7 -0.98 7 -2 7 C-2 8.98 -2 10.96 -2 13 C-2.99 13 -3.98 13 -5 13 C-5 14.65 -5 16.3 -5 18 C-5.99 18.33 -6.98 18.66 -8 19 C-8 20.65 -8 22.3 -8 24 C-8.99 23.67 -9.98 23.34 -11 23 C-10.34 21.02 -9.68 19.04 -9 17 C-8.34 17 -7.68 17 -7 17 C-7 15.35 -7 13.7 -7 12 C-5.68 12 -4.36 12 -3 12 C-3 10.02 -3 8.04 -3 6 C-2.01 6 -1.02 6 0 6 C0 4.02 0 2.04 0 0 Z " fill="#FFFFFF" transform="translate(489,51)"/>
<path d="M0 0 C0.33 0 0.66 0 1 0 C1 2.97 1 5.94 1 9 C0.67 9.165 0.67 9.165 -1 10 C-1 12.64 -1 15.28 -1 18 C-0.31 17.995 0.381 17.99 1.092 17.984 C3.684 17.967 6.277 17.954 8.869 17.945 C9.986 17.94 11.102 17.933 12.218 17.925 C18.228 17.879 24.063 17.918 30 19 C30 19.99 30 20.98 30 22 C27.69 22 25.38 22 23 22 C22.67 21.01 22.34 20.02 22 19 C20.52 19.308 19.041 19.622 17.562 19.938 C16.739 20.112 15.915 20.286 15.066 20.465 C13 21 13 21 12 22 C10.418 22.114 10.418 22.114 8.402 22.098 C8.043 22.096 8.043 22.096 6.225 22.088 C5.47 22.08 4.715 22.071 3.938 22.062 C3.179 22.058 2.42 22.053 1.639 22.049 C-0.241 22.037 -2.12 22.019 -4 22 C-3.67 17.71 -3.34 13.42 -3 9 C-2.01 8.67 -1.02 8.34 0 8 C0 5.36 0 2.72 0 0 Z " fill="#FFFFFF" transform="translate(890,102)"/>
<path d="M0 0 C1.794 2.262 3.293 4.173 4 7 C4.99 7.33 5.98 7.66 7 8 C7 9.65 7 11.3 7 13 C7.99 13 8.98 13 10 13 C10 14.98 10 16.96 10 19 C10.99 19 11.98 19 13 19 C13 20.98 13 22.96 13 25 C13.99 25.33 14.98 25.66 16 26 C16.066 26.211 16.066 26.211 16.402 27.277 C16.579 27.825 16.756 28.373 16.938 28.938 C17.112 29.483 17.286 30.028 17.465 30.59 C18 32 18 32 19 33 C19.086 34.343 19.107 35.69 19.098 37.035 C19.094 37.844 19.091 38.653 19.088 39.486 C19.08 40.336 19.071 41.187 19.062 42.062 C19.058 42.917 19.053 43.771 19.049 44.65 C19.037 46.767 19.021 48.883 19 51 C18.01 51 17.02 51 16 51 C16 54.63 16 58.26 16 62 C15.67 62 15.34 62 15 62 C15 58.04 15 54.08 15 50 C15.99 50 16.98 50 18 50 C17.89 47.374 17.76 44.75 17.625 42.125 C17.594 41.379 17.563 40.632 17.531 39.863 C17.493 39.148 17.454 38.432 17.414 37.695 C17.383 37.035 17.351 36.376 17.319 35.696 C17 34 17 34 15 32 C14.312 30.342 13.644 28.675 13 27 C12.67 26.67 12.34 26.34 12 26 C11.861 23.994 11.957 22.013 12 20 C11.01 20 10.02 20 9 20 C9 18.02 9 16.04 9 14 C7.68 14 6.36 14 5 14 C5 12.35 5 10.7 5 9 C4.546 8.918 4.092 8.835 3.625 8.75 C2 8 2 8 0.812 6.188 C-0.02 3.946 -0.169 2.367 0 0 Z " fill="#FFFFFF" transform="translate(954,55)"/>
<path d="M0 0 C4.95 0 9.9 0 15 0 C15 1.32 15 2.64 15 4 C9.06 4 3.12 4 -3 4 C-2.01 2.68 -1.02 1.36 0 0 Z " fill="#FFFFFF" transform="translate(395,124)"/>
<path d="M0 0 C0.33 1.32 0.66 2.64 1 4 C0.67 4.33 0.34 4.66 0 5 C-0.232 6.515 -0.412 8.038 -0.562 9.562 C-0.646 10.389 -0.73 11.215 -0.816 12.066 C-0.877 12.704 -0.938 13.343 -1 14 C-1.99 14.33 -2.98 14.66 -4 15 C-4.33 17.31 -4.66 19.62 -5 22 C-4.68 22.072 -4.68 22.072 -3.062 22.438 C-1 23 -1 23 0 24 C0.139 26.006 0.043 27.987 0 30 C-1.65 30 -3.3 30 -5 30 C-5 29.34 -5 28.68 -5 28 C-4.01 28 -3.02 28 -2 28 C-2 26.68 -2 25.36 -2 24 C-3.32 23.67 -4.64 23.34 -6 23 C-6 20.03 -6 17.06 -6 14 C-5.01 13.67 -4.02 13.34 -3 13 C-3 9.7 -3 6.4 -3 3 C-2.01 3 -1.02 3 0 3 C0 2.01 0 1.02 0 0 Z " fill="#FFFFFF" transform="translate(836,97)"/>
<path d="M0 0 C0.66 0.33 1.32 0.66 2 1 C-5.163 15.582 -5.163 15.582 -8 17 C-8.33 18.65 -8.66 20.3 -9 22 C-9.99 21.67 -10.98 21.34 -12 21 C-11.34 21 -10.68 21 -10 21 C-10 19.35 -10 17.7 -10 16 C-9.01 15.67 -8.02 15.34 -7 15 C-7 13.35 -7 11.7 -7 10 C-6.01 9.67 -5.02 9.34 -4 9 C-4 7.35 -4 5.7 -4 4 C-3.01 4 -2.02 4 -1 4 C-0.67 2.68 -0.34 1.36 0 0 Z " fill="#FFFFFF" transform="translate(483,95)"/>
<path d="M0 0 C2.479 -0.029 4.958 -0.047 7.438 -0.062 C8.145 -0.071 8.852 -0.079 9.58 -0.088 C9.917 -0.09 9.917 -0.09 11.621 -0.098 C11.933 -0.1 11.933 -0.1 13.51 -0.114 C14.001 -0.076 14.493 -0.039 15 0 C15.33 0.33 15.66 0.66 16 1 C16.073 2.867 16.093 4.697 16.062 6.562 C16.058 7.083 16.053 7.603 16.049 8.139 C16.037 9.426 16.019 10.713 16 12 C14.68 12.33 13.36 12.66 12 13 C12.66 9.04 13.32 5.08 14 1 C11.875 1.141 9.75 1.287 7.625 1.438 C7.022 1.477 6.418 1.516 5.797 1.557 C5.217 1.599 4.637 1.64 4.039 1.684 C3.505 1.72 2.971 1.757 2.42 1.795 C1 2 1 2 -1 3 C-0.67 2.01 -0.34 1.02 0 0 Z " fill="#FFFFFF" transform="translate(78,59)"/>
<path d="M0 0 C0 0.99 0 1.98 0 3 C-0.66 3.33 -0.66 3.33 -4 5 C-3.67 4.01 -3.34 3.02 -3 2 C-7.95 1.835 -7.95 1.835 -33 1 C-33 0.67 -33 0.34 -33 0 C-29.104 -0.168 -25.208 -0.329 -21.312 -0.482 C-19.988 -0.535 -18.664 -0.591 -17.34 -0.648 C-15.431 -0.731 -13.522 -0.806 -11.613 -0.879 C-11.027 -0.906 -10.44 -0.933 -9.836 -0.961 C-6.398 -1.084 -3.371 -0.82 0 0 Z " fill="#FFFFFF" transform="translate(937,87)"/>
<path d="M0 0 C0.33 0.66 0.66 1.32 1 2 C0.67 2.165 0.67 2.165 -1 3 C-2.07 4.848 -2.07 4.848 -3.125 7.062 C-3.744 8.362 -4.363 9.661 -5 11 C-10.61 11 -16.22 11 -22 11 C-22 10.67 -22 10.34 -22 10 C-16.72 10 -11.44 10 -6 10 C-6 8.35 -6 6.7 -6 5 C-5.01 4.67 -4.02 4.34 -3 4 C-2.876 3.526 -2.752 3.051 -2.625 2.562 C-2.522 2.305 -2.522 2.305 -2 1 C-1.34 0.67 -0.68 0.34 0 0 Z " fill="#FFFFFF" transform="translate(149,118)"/>
<path d="M0 0 C6.433 -0.095 12.645 -0.155 19 1 C19 1.99 19 2.98 19 4 C16.69 4 14.38 4 12 4 C11.67 3.01 11.34 2.02 11 1 C7.37 1 3.74 1 0 1 C0 0.67 0 0.34 0 0 Z " fill="#FFFFFF" transform="translate(901,120)"/>
<path d="M0 0 C0.66 0.33 1.32 0.66 2 1 C1.67 1.33 1.34 1.66 1 2 C0.716 4.515 0.552 7.03 0.379 9.555 C-0.01 12.065 -0.613 12.965 -2 15 C-2.414 17.262 -2.414 17.262 -2.625 19.688 C-2.7 20.496 -2.775 21.304 -2.852 22.137 C-2.901 22.752 -2.95 23.366 -3 24 C-3.33 24 -3.66 24 -4 24 C-4 20.04 -4 16.08 -4 12 C-3.01 11.67 -2.02 11.34 -1 11 C-1.012 10.29 -1.023 9.579 -1.035 8.848 C-1.04 8.388 -1.04 8.388 -1.062 6.062 C-1.074 5.146 -1.086 4.229 -1.098 3.285 C-1.065 2.531 -1.033 1.777 -1 1 C-0.67 0.67 -0.34 0.34 0 0 Z " fill="#FFFFFF" transform="translate(738,63)"/>
<path d="M0 0 C0.33 0 0.66 0 1 0 C1 1.65 1 3.3 1 5 C1.99 5.33 2.98 5.66 4 6 C4 8.64 4 11.28 4 14 C3.67 14 3.34 14 3 14 C2.867 13.506 2.734 13.013 2.598 12.504 C2.421 11.863 2.244 11.223 2.062 10.562 C1.888 9.924 1.714 9.286 1.535 8.629 C1 7 1 7 0 6 C-0.139 3.994 -0.043 2.013 0 0 Z " fill="#FFFFFF" transform="translate(669,84)"/>
<path d="M0 0 C0.825 0.165 0.825 0.165 5 1 C5 1.99 5 2.98 5 4 C4.34 4.33 4.34 4.33 1 6 C1.33 5.01 1.66 4.02 2 3 C1.34 2.67 0.68 2.34 0 2 C0 1.34 0 0.68 0 0 Z " fill="#FFFFFF" transform="translate(932,86)"/>
<path d="M0 0 C2.31 0 4.62 0 7 0 C6.361 0.248 5.721 0.495 5.062 0.75 C3 2 3 2 2.25 4.125 C2.168 4.744 2.085 5.362 2 6 C1.34 4.02 0.68 2.04 0 0 Z " fill="#FFFFFF" transform="translate(955,56)"/>
<path d="M0 0 C0.66 0.33 1.32 0.66 2 1 C1.67 1.99 1.34 2.98 1 4 C-0.65 4 -2.3 4 -4 4 C-4 3.34 -4 2.68 -4 2 C-2.68 1.34 -1.36 0.68 0 0 Z " fill="#FFFFFF" transform="translate(245,124)"/>
<path d="M0 0 C0.33 0 0.66 0 1 0 C1.33 2.97 1.66 5.94 2 9 C1.01 9 0.02 9 -1 9 C-0.67 6.03 -0.34 3.06 0 0 Z " fill="#FFFFFF" transform="translate(771,115)"/>
<path d="M0 0 C0.33 0 0.66 0 1 0 C1.33 2.64 1.66 5.28 2 8 C1.01 8 0.02 8 -1 8 C-0.67 5.36 -0.34 2.72 0 0 Z " fill="#FFFFFF" transform="translate(120,74)"/>
<path d="M0 0 C0.33 0 0.66 0 1 0 C1.33 1.98 1.66 3.96 2 6 C1.01 6 0.02 6 -1 6 C-0.67 4.02 -0.34 2.04 0 0 Z " fill="#FFFFFF" transform="translate(648,118)"/>
<path d="M0 0 C1.65 0.33 3.3 0.66 5 1 C4.34 1.33 4.34 1.33 1 3 C0.34 2.34 -0.32 1.68 -1 1 C-0.67 0.67 -0.34 0.34 0 0 Z " fill="#FFFFFF" transform="translate(996,122)"/>
<path d="M0 0 C1.65 0.33 3.3 0.66 5 1 C4.34 1.33 4.34 1.33 1 3 C0.34 2.34 -0.32 1.68 -1 1 C-0.67 0.67 -0.34 0.34 0 0 Z " fill="#FFFFFF" transform="translate(405,122)"/>
<path d="M0 0 C1.65 0.33 3.3 0.66 5 1 C4.34 1.33 4.34 1.33 1 3 C0.34 2.34 -0.32 1.68 -1 1 C-0.67 0.67 -0.34 0.34 0 0 Z " fill="#FFFFFF" transform="translate(108,122)"/>
<path d="M0 0 C0.66 0 1.32 0 2 0 C1.67 0.99 1.34 1.98 1 3 C0.34 3 -0.32 3 -1 3 C-0.67 2.01 -0.34 1.02 0 0 Z " fill="#FFFFFF" transform="translate(133,114)"/>
<path d="M0 0 C0.495 0.33 0.495 0.33 3 2 C2.01 2.33 1.02 2.66 0 3 C0 2.01 0 1.02 0 0 Z " fill="#FFFFFF" transform="translate(717,122)"/>
</svg>
